<?xml version="1.0" encoding="UTF-8" standalone="no"?>
<svg
   xmlns:dc="http://purl.org/dc/elements/1.1/"
   xmlns:cc="http://creativecommons.org/ns#"
   xmlns:rdf="http://www.w3.org/1999/02/22-rdf-syntax-ns#"
   xmlns:svg="http://www.w3.org/2000/svg"
   xmlns="http://www.w3.org/2000/svg"
   xmlns:sodipodi="http://sodipodi.sourceforge.net/DTD/sodipodi-0.dtd"
   xmlns:inkscape="http://www.inkscape.org/namespaces/inkscape"
   width="63.944641"
   height="39.876442"
   id="svg2"
   version="1.1"
   inkscape:version="0.91 r13725"
   sodipodi:docname="map-icon.svg">
  <metadata
     id="metadata66">
    <rdf:RDF>
      <cc:Work
         rdf:about="">
        <dc:format>image/svg+xml</dc:format>
        <dc:type
           rdf:resource="http://purl.org/dc/dcmitype/StillImage" />
        <dc:title></dc:title>
      </cc:Work>
    </rdf:RDF>
  </metadata>
  <defs
     id="defs64" />
  <sodipodi:namedview
     pagecolor="#ffffff"
     bordercolor="#666666"
     borderopacity="1"
     objecttolerance="10"
     gridtolerance="10"
     guidetolerance="10"
     inkscape:pageopacity="0"
     inkscape:pageshadow="2"
     inkscape:window-width="1280"
     inkscape:window-height="670"
     id="namedview62"
     showgrid="false"
     fit-margin-top="0"
     fit-margin-left="0"
     fit-margin-right="0"
     fit-margin-bottom="0"
     inkscape:zoom="3.424433"
     inkscape:cx="75.118703"
     inkscape:cy="22.567793"
     inkscape:window-x="-8"
     inkscape:window-y="-8"
     inkscape:window-maximized="1"
     inkscape:current-layer="g4" />
  <g
     transform="matrix(1.2411467,0,0,1.2411467,356.06574,-688.83194)"
     id="g4">
    <path
       d="m -245.51465,579.60629 c 0.0963,0.16642 0.0855,0.3488 0.0661,0.53232 -0.23482,0.0307 -0.12254,-0.26731 -0.31689,-0.22741 -0.35223,-0.004 -0.7033,0.0644 -1.05666,0.0678 -0.57507,0.0165 -1.16096,0.12197 -1.72862,0.0364 -0.14647,-0.0895 -0.16186,-0.35051 -0.37045,-0.30377 -0.51979,-0.006 -1.03615,0.10203 -1.55364,0.14533 -0.33171,0.0359 -0.66227,0.0781 -0.99341,0.12083 -0.081,0.18523 0.14819,0.24906 0.2314,0.36133 0.0456,0.12995 -0.0889,0.47989 0.12482,0.40466 0.23424,-0.0684 0.4605,-0.16699 0.71128,-0.15502 0.19035,-0.0467 0.37786,-0.0416 0.56366,0.0256 0.2331,0.0456 0.44284,0.17611 0.6503,0.28383 0.10087,0.11056 0.31346,0.10657 0.34025,0.28496 -0.008,0.18636 0.24621,-0.0536 0.37045,0.0302 0.18181,-0.0456 0.29865,-0.20973 0.43829,-0.31347 0.27698,0.0963 0.0353,-0.16528 0.18636,-0.22626 0.17839,-0.0473 0.3773,-0.0792 0.53289,0.0451 0.17326,0.0325 0.30948,0.11399 0.37445,0.2844 0.20974,10e-4 0.16415,0.23538 0.31233,0.30206 0.1687,0.0279 0.16984,0.25761 0.35906,0.24507 0.16585,0.0205 0.31061,0.0656 0.33284,0.25362 0.11684,0.12026 0.22342,0.2428 0.17611,0.42233 0.0105,0.20973 0.006,0.41775 -0.0821,0.61268 0.0222,0.20973 0.0781,0.45253 0.18693,0.61439 0.12824,-0.19721 0.009,-0.22057 -0.0992,-0.34367 0.12482,-0.10035 0.27698,-0.0125 0.41605,0.009 0.0467,0.17953 -0.12311,0.31916 -0.19834,0.46677 -0.18808,0.12597 0.094,0.23311 0.15559,0.35907 0.17725,0.19035 0.24792,0.45252 0.42917,0.64174 0.0444,0.13052 0.14304,0.42574 0.26387,0.17611 0.14476,-0.0137 0.22114,0.19606 0.30093,0.30834 -0.001,0.1288 0.11,0.40124 0.20461,0.36704 0.16413,-0.0456 0.34424,0.0371 0.4719,0.14761 0.1459,0.18808 0.26104,0.39782 0.25989,0.64232 0.0781,0.15559 0.25933,0.0251 0.33113,-0.065 0.21316,0.0257 0.41378,-0.0713 0.52549,-0.25477 -0.0576,-0.1345 -0.0325,-0.27527 -0.0182,-0.40864 -0.002,-0.12425 0.24678,-0.18181 0.12824,-0.37103 -0.0559,-0.36077 -0.0109,-0.73863 -0.10659,-1.09712 -0.1402,-0.39497 -0.42972,-0.72611 -0.59272,-1.1148 -0.086,-0.13735 -0.24166,-0.22342 -0.26331,-0.40123 -0.0536,-0.12995 -0.15217,-0.28212 -0.004,-0.38243 -0.0222,-0.2029 -0.27698,-0.30891 -0.38983,-0.47932 -0.30663,-0.31744 -0.47248,-0.73749 -0.70387,-1.10795 -0.12254,-0.31518 -0.2445,-0.63092 -0.33683,-0.95636 -0.19549,0.004 -0.41605,-0.0588 -0.59616,-0.0199 l -0.0194,0.0211 -0.0148,0.0165 z m 3.01553,6.22483 c -0.10829,0.26103 0.0411,0.0217 0.0377,-0.10886 -0.0125,0.0364 -0.0251,0.0724 -0.0377,0.10886 z m -0.2673,0.5648 c 0.1459,-0.11228 0.20974,-0.38983 0.0593,-0.0957 -0.0199,0.0319 -0.0393,0.0638 -0.0593,0.0957 z m -0.12823,0.12653 c 0.0832,-0.0695 0.11626,-0.11798 0.0105,-0.0105 l -0.0105,0.0105 z m -0.32601,0.2371 c -0.29808,0.2103 0.22968,-0.12198 0.0187,-0.0109 l -0.0187,0.0109 z m -0.61097,0.18352 c -0.19434,0.18009 0.32543,-0.0182 0.23367,-0.0462 -0.10255,-0.0319 -0.1459,-0.0404 -0.23367,0.0462 z m -0.2616,0.18009 c 0.004,0.009 0.0229,-0.0172 0,0 z"
       id="state_fl"
       class="state-svg"
       inkscape:connector-curvature="0" />
    <path
       d="m -239.00713,559.88994 c -0.0798,-0.0234 -0.22057,-0.0411 -0.17383,0.17098 0.0125,0.20688 -0.0416,0.44683 0.1271,0.60356 0.0187,0.15844 0.004,0.30549 -0.12368,0.41548 -0.0108,0.16131 -0.34083,0.14705 -0.19093,0.30321 0.0661,0.41891 -0.0319,0.85662 -0.0354,1.28293 0.0684,0.11113 0.0559,0.2502 0.0433,0.38471 -0.061,0.216 0.27585,-0.003 0.39269,0.003 0.22398,-0.0735 0.48217,-0.0992 0.6862,-0.20176 0.0439,-0.17669 0.24906,-0.15673 0.33854,-0.28269 0.14762,-0.20062 -0.17154,-0.1556 -0.11399,-0.37559 -0.21828,3.9e-4 -0.24336,-0.1402 -0.26558,-0.3203 -0.21886,-0.68279 -0.4172,-1.39349 -0.65486,-2.05746 -0.0105,0.0245 -0.0199,0.0484 -0.0302,0.073 z"
       id="state_nh"
       class="state-svg"
       inkscape:connector-curvature="0" />
    <path
       d="m -248.39397,564.63408 -0.18408,-0.47019 -0.12938,-0.51579 -0.13792,-0.1841 -0.14762,-0.1015 -0.0918,0.0644 -0.22114,0.1015 -0.11056,0.28554 -0.15674,0.21201 -0.0644,0.0364 -0.0832,-0.0364 c 0,0 -0.14761,-0.0832 -0.13792,-0.11969 0.009,-0.0371 0.0274,-0.2861 0.0274,-0.2861 l 0.19377,-0.0735 0.0456,-0.19321 0.0371,-0.14761 0.1385,-0.0923 -0.0189,-0.57108 -0.0918,-0.1288 -0.0741,-0.0462 -0.0461,-0.11968 0.0461,-0.0461 0.0923,0.0182 0.009,-0.0917 -0.13793,-0.12937 -0.0741,-0.14705 -0.14705,0 -0.25818,-0.0832 -0.31346,-0.19321 -0.15674,0 -0.0365,0.0364 -0.0553,-0.0274 -0.17497,-0.12937 -0.16585,0.1014 -0.16585,0.12937 0.0182,0.20233 0.0553,0.0187 0.11968,0.0274 0.0279,0.0462 -0.14761,0.0461 -0.14762,0.0182 -0.0827,0.10139 -0.0182,0.11969 0.0182,0.0923 0.0182,0.3129 -0.20234,0.11969 -0.0371,-0.009 0,-0.23938 0.0735,-0.13792 0.0371,-0.13849 -0.0461,-0.0462 -0.11057,0.0462 -0.0553,0.23936 -0.15674,0.0644 -0.10139,0.11057 -0.009,0.0553 0.0371,0.0462 -0.0371,0.14762 -0.12881,0.0274 0,0.065 0.0461,0.13792 -0.0644,0.34993 -0.0923,0.23083 0.0371,0.26673 0.0274,0.065 -0.0461,0.13792 -0.0182,0.0462 -0.0182,0.15674 0.20233,0.34082 0.16585,0.36817 0.0832,0.27643 -0.0462,0.2673 -0.0553,0.34082 -0.1385,0.29522 -0.0182,0.15673 -0.18581,0.17554 0.25135,-0.009 1.22081,-0.12881 0.41491,-0.0564 0.005,0.0945 0.39097,-0.069 0.58646,-0.0855 0.22001,-0.0262 0.008,-0.0336 0.009,-0.0827 0.1197,-0.21202 0.11398,-0.0992 -0.0125,-0.28782 0.0907,-0.0912 0.0621,-0.0194 0.013,-0.20291 0.0872,-0.17268 0.0598,0.0347 0.009,0.0364 0.0456,0.009 0.11057,-0.0553 -0.0182,-0.54315 z m -6.62493,-5.42464 0.10435,-0.11741 0.12368,-0.0456 0.30604,-0.22171 0.13052,-0.0325 0.0262,0.0262 -0.29352,0.29294 -0.18864,0.11113 -0.11741,0.0519 -0.0912,-0.065 z m 4.91114,1.8312 0.0371,0.14249 0.18409,0.009 0.0741,-0.069 c 0,0 -0.004,-0.0827 -0.0234,-0.0917 -0.0182,-0.009 -0.0917,-0.10601 -0.0917,-0.10601 l -0.12481,0.0137 -0.0917,0.009 -0.0188,0.0644 0.0553,0.0279 z m -5.71645,-0.16984 0.0411,-0.0331 0.15674,-0.0461 0.20233,-0.12881 0,-0.0553 0.0371,-0.0371 0.34082,-0.0553 0.1385,-0.11056 0.24849,-0.11969 0.009,-0.0735 0.11057,-0.16585 0.1015,-0.0461 0.0735,-0.1015 0.12938,-0.12881 0.2485,-0.13792 0.26729,-0.0279 0.0644,0.0644 -0.0182,0.0553 -0.21202,0.0553 -0.0827,0.17497 -0.12937,0.0461 -0.0274,0.13849 -0.1385,0.18409 -0.0182,0.14761 0.0461,0.0274 0.0553,-0.0644 0.20234,-0.16585 0.0741,0.0735 0.1288,0 0.18409,0.0553 0.0832,0.0644 0.0827,0.17554 0.15673,0.15617 0.22114,-0.009 0.0832,-0.0553 0.0918,0.0741 0.0923,0.0274 0.0735,-0.0461 0.0644,0 0.0923,-0.0553 0.23025,-0.20232 0.19378,-0.065 0.37786,-0.0182 0.25762,-0.11057 0.1476,-0.0735 0.0827,0.009 0,0.32258 0.0279,0.0182 0.16585,0.0462 0.11056,-0.0279 0.34994,-0.0917 0.0644,-0.0644 0.0832,0.0274 0,0.39611 0.18408,0.17497 0.0735,0.0371 0.0741,0.0553 -0.0741,0.0182 -0.0456,-0.0182 -0.21202,-0.0274 -0.11969,0.0364 -0.12938,-0.009 -0.18408,0.0832 -0.1015,0 -0.3317,-0.0741 -0.29467,0.009 -0.11056,0.14761 -0.39611,0.0371 -0.13849,0.0462 -0.0644,0.17497 -0.0735,0.0644 -0.0279,-0.009 -0.0827,-0.0923 -0.25818,0.13848 -0.0371,0 -0.0644,-0.0923 -0.0462,0.009 -0.11056,0.24906 -0.0553,0.23026 -0.18123,0.39896 -0.0666,-0.0593 -0.0781,-0.0586 -0.11113,-0.58647 -0.20175,-0.0781 -0.11684,-0.12994 -0.69076,-0.15673 -0.163,-0.0588 -0.46906,-0.12367 -0.44968,-0.065 -0.21201,-0.29351 z"
       id="state_mi"
       class="state-svg"
       inkscape:connector-curvature="0" />
    <path
       d="m -240.68274,560.60749 c 0.0109,0.34197 0.26502,0.6389 0.21202,0.98485 -0.14135,0.24108 0.2576,0.41548 0.12652,0.65999 0.0513,0.0906 0.26559,0.1117 0.23139,0.29922 0.0616,0.23993 0.16301,0.47531 0.10487,0.72723 0.19092,-0.0291 0.40237,-0.0666 0.57734,-0.11228 -0.012,-0.1214 0.086,-0.32771 -0.0302,-0.44512 0.0114,-0.43543 0.0576,-0.86972 0.0644,-1.30572 -0.18522,-0.13735 0.0182,-0.216 0.12083,-0.29523 0.1117,-0.12994 0.22228,-0.28895 0.14818,-0.46164 -0.14932,-0.0929 -0.0581,-0.33855 -0.13621,-0.4115 -0.47304,0.11969 -0.94553,0.23995 -1.41857,0.35963 z"
       id="state_vt"
       class="state-svg"
       inkscape:connector-curvature="0" />
    <path
       d="m -237.45007,556.82483 c -0.1231,0.0747 -0.2103,0.15616 -0.27584,0.2673 -0.13052,0.0342 -0.2844,-0.0781 -0.27814,-0.22455 -0.16927,-0.0467 -0.18978,0.20973 -0.24906,0.32543 -0.0621,0.2445 -0.18637,0.47818 -0.22625,0.72325 -0.003,0.17326 0.057,0.37787 -0.077,0.51807 0.004,0.16642 -0.0427,0.35221 0.11399,0.46506 -0.0781,0.32486 -0.35507,0.59045 -0.30834,0.94382 -0.24336,-0.12596 -0.0992,0.14078 -0.0621,0.26958 0.20005,0.63149 0.40978,1.26297 0.58418,1.90073 0.012,0.17155 0.33114,0.077 0.25818,0.32487 0.16528,0.11398 0.11741,-0.22342 0.15161,-0.33456 -0.0576,-0.18751 0.15388,-0.26387 0.0376,-0.43429 0.0536,-0.0598 0.16642,-0.33627 0.26274,-0.1972 0.1157,0.0588 0.30092,-0.10771 0.38413,-0.1818 -0.0558,-0.22912 0.23996,-0.0997 0.26958,-0.30321 -0.0633,-0.14876 0.0422,-0.31062 -0.0325,-0.42404 -0.13792,-0.0906 0.20119,-0.26387 0.18865,-0.0444 0.12937,0.0274 0.12253,0.15959 0.20859,0.22398 0.11058,-0.16071 -0.12253,-0.21713 0.0199,-0.34366 0.13849,-0.0462 0.17668,-0.2257 0.34196,-0.18866 -0.009,0.0832 0.0588,0.19037 0.1288,0.0787 0.16757,-0.16528 0.29865,-0.40351 0.53404,-0.47531 0.0667,-0.14875 0.19035,-0.32715 0.0404,-0.46963 -0.0314,-0.0935 -0.20974,-0.27585 -0.23652,-0.14705 -0.0428,0.14818 -0.26559,-0.0371 -0.28041,-0.12652 0.005,-0.15958 0.0165,-0.40864 -0.21658,-0.33113 -0.22569,0.0775 -0.20746,-0.17326 -0.26729,-0.31974 -0.14021,-0.4645 -0.28098,-0.92899 -0.42176,-1.39349 -0.163,-0.0713 -0.32543,-0.16642 -0.50211,-0.19264 -0.0302,0.0302 -0.0604,0.0604 -0.0907,0.0906 z m 1.16666,3.4766 c -0.16015,0.0969 0.10658,0.2941 0.0644,0.0695 0.0843,-0.0513 0.007,-0.13678 -0.0644,-0.0695 z m -0.44512,0.44512 c 0.1801,0.38015 0.1499,-0.2046 0,0 z"
       id="state_me"
       class="state-svg"
       inkscape:connector-curvature="0" />
    <path
       d="m -238.5261,563.89545 c 0.0655,0.26559 0.13051,0.53061 0.19606,0.7962 0.1459,-0.0279 0.26559,-0.13051 0.33284,-0.25989 0.23766,0.0433 0.22797,-0.15046 0.086,-0.28326 -0.10203,-0.11057 -0.1801,-0.30263 -0.32713,-0.3374 -0.0957,0.0279 -0.19207,0.0564 -0.28782,0.0843 z"
       id="state_ri"
       class="state-svg"
       inkscape:connector-curvature="0" />
    <path
       d="m -241.11589,560.72546 c -0.15388,0.0638 -0.31061,0.0957 -0.47476,0.0815 -0.28895,0.0411 -0.57962,0.15559 -0.73636,0.41662 -0.16186,0.19549 -0.27869,0.42688 -0.4092,0.63832 -0.094,0.13451 -0.33171,0.21259 -0.31632,0.38985 -0.009,0.20289 0.32886,0.0416 0.25248,0.24963 -0.15331,0.13108 0.0456,0.24108 0.0319,0.37558 0.0285,0.19777 -0.24278,0.11342 -0.30548,0.22798 -0.0923,0.15444 -0.19092,0.3773 -0.41149,0.34481 -0.17327,-0.0245 -0.30492,0.11684 -0.45481,0.14989 -0.14249,-0.0428 -0.26788,-0.11683 -0.43258,-0.0747 -0.30263,0.012 -0.60528,0.11285 -0.86802,0.25818 -0.0165,0.10086 0.0348,0.35621 0.18068,0.34995 0.0883,0.14134 0.11911,0.28268 -0.0359,0.38298 -0.086,0.10035 -0.10255,0.24223 -0.23709,0.30207 -0.11,0.065 -0.15275,0.20005 -0.27358,0.25876 0.0189,0.17497 -0.0125,0.41548 0.23255,0.2918 1.26183,-0.24279 2.52252,-0.49471 3.77467,-0.78309 0.0559,0.21942 0.32316,0.0752 0.36704,0.22797 0.0364,0.167 0.0775,0.42176 0.30378,0.39212 0.17896,0.10829 0.39326,0.20973 0.60926,0.24051 0.15445,0.0268 0.40921,0.0815 0.36704,0.28839 -0.0189,0.11228 -0.0923,0.43087 0.11228,0.33797 0.30206,-0.094 0.62464,-0.16186 0.85831,-0.39041 0.1841,-0.14191 0.38529,-0.26445 0.53289,-0.44797 -0.17041,-0.13906 -0.26501,0.0262 -0.38813,0.13793 -0.16585,0.089 -0.34252,0.20005 -0.52205,0.24622 -0.14818,-0.0359 -0.27528,-0.0491 -0.35222,0.11797 -0.0587,0.11626 -0.27699,0.16984 -0.22683,-0.008 0.24279,-0.10658 -0.12368,-0.22627 -0.0189,-0.35393 0.0678,-0.17839 0.0319,-0.39155 0.0239,-0.5819 -0.0815,-0.42062 -0.21031,-0.84123 -0.14477,-1.27438 -0.004,-0.25419 0.0883,-0.51123 -0.0291,-0.75289 -0.0695,-0.1459 -0.0269,-0.38926 -0.23082,-0.41832 -0.17041,-0.0376 0.0428,-0.24565 -0.0895,-0.35336 -0.0969,-0.1385 -0.18066,-0.27984 -0.0878,-0.44512 0.0217,-0.32885 -0.21828,-0.60243 -0.20232,-0.93186 -0.13222,0.0371 -0.26503,0.0735 -0.39725,0.11058 z"
       id="state_ny"
       class="state-svg"
       inkscape:connector-curvature="0" />
    <path
       d="m -242.63648,564.88428 c -0.99739,0.19265 -1.98736,0.42289 -2.99045,0.5859 -0.0347,-0.11398 0.0274,-0.47988 -0.13736,-0.24564 -0.12424,0.15559 -0.31232,0.21315 -0.46107,0.34024 0.0866,0.5557 0.14989,1.11537 0.31005,1.65567 0.065,0.34709 0.12937,0.69361 0.19434,1.0407 0.5044,-0.081 1.01391,-0.12824 1.5109,-0.25134 0.93412,-0.19663 1.88249,-0.36818 2.81149,-0.56252 0.14134,-0.17498 0.45766,-0.0963 0.51123,-0.35279 0.0364,-0.13451 0.27699,-0.2274 0.24679,-0.33626 -0.13108,-0.10772 -0.33855,-0.15787 -0.36419,-0.34937 -0.17896,0.0621 -0.25191,-0.22456 -0.17782,-0.30322 0.21999,-0.0626 -0.0279,-0.20973 0.0314,-0.33968 0.14362,-0.10714 0.0638,-0.29351 0.16015,-0.40294 0.22056,-0.15388 -0.16984,-0.0626 -0.21202,-0.2274 -0.077,-0.12425 -0.016,-0.41263 -0.23709,-0.3374 -0.13337,-0.0644 -0.22057,-0.21373 -0.40409,-0.0969 -0.26445,0.061 -0.52889,0.12254 -0.79335,0.18352 z"
       id="state_pa"
       class="state-svg"
       inkscape:connector-curvature="0" />
    <path
       d="m -240.98594,565.43769 c 0.0588,0.17041 -0.10371,0.27357 -0.11741,0.42575 0.163,0.0929 0.0279,0.27755 -0.0524,0.32657 -0.0234,0.21999 0.22854,0.0957 0.23709,0.29295 0.0781,0.12481 0.269,0.17211 0.35677,0.28154 -0.008,0.14875 -0.21942,0.19948 -0.2673,0.34538 -0.0148,0.17497 -0.2331,0.18181 -0.23822,0.33969 -0.0564,0.13564 -0.0422,0.29009 0.0969,0.36874 0.16243,0.1573 0.39097,0.22741 0.61154,0.24963 0.0274,0.0883 -0.10487,0.40922 0.0626,0.20461 0.0855,-0.13792 0.0337,-0.33911 0.17725,-0.45652 0.14249,-0.23253 0.28667,-0.50381 0.27814,-0.77568 -0.077,-0.23196 0.0456,-0.51351 -0.10319,-0.73066 -0.0627,0.0753 -0.35165,0.0701 -0.23538,-0.0456 0.13622,-0.0792 0.19207,-0.20631 0.13622,-0.35962 0.012,-0.13165 0.09,-0.30891 -0.0963,-0.35279 -0.24791,-0.0656 -0.50268,-0.1214 -0.73407,-0.24279 -0.0376,0.0427 -0.0746,0.0855 -0.11227,0.12823 z"
       id="state_nj"
       class="state-svg"
       inkscape:connector-curvature="0" />
    <path
       d="m -241.15464,567.37547 c -0.21203,0.0142 -0.19777,0.20062 -0.10886,0.34937 0.19093,0.39269 0.21999,0.83097 0.34367,1.24303 0.19663,0.006 0.38812,-0.0279 0.57905,-0.0713 -0.0684,-0.12368 -0.0387,-0.36362 -0.18922,-0.36362 -0.16528,-0.0684 -0.23765,-0.21031 -0.27926,-0.37502 -0.0519,-0.17724 -0.20632,-0.28269 -0.31232,-0.4189 -0.10545,-0.10371 0.0536,-0.31347 -0.0148,-0.36875 l -0.0189,0.005 z"
       id="state_de"
       class="state-svg"
       inkscape:connector-curvature="0" />
    <path
       d="m -241.7981,567.5949 c -0.98657,0.18124 -1.96799,0.38926 -2.95113,0.58589 0.0422,0.17212 0.0747,0.34653 0.1015,0.52206 0.12197,-0.10829 0.18751,-0.30491 0.37559,-0.30435 0.12197,-0.10543 0.15217,-0.29921 0.32885,-0.20232 0.1972,0.0105 0.30948,-0.30492 0.51352,-0.21942 0.14989,0.0929 0.32258,0.15901 0.41833,0.31859 0.2388,0.006 0.20974,0.21258 0.32714,0.28268 0.15559,0.0633 0.30572,-0.0465 0.38324,-0.14399 0.087,0.0982 0.23898,0.19846 0.28765,0.28807 0.0249,0.046 -0.0671,0.0858 -0.21735,0.23467 0.005,0.16927 -0.21872,0.26472 -0.10245,0.43854 0.17668,0.0747 0.36476,0.0684 0.54885,0.0798 0.12367,0.09 0.38927,0.0586 0.216,-0.11969 0.0234,-0.15617 -0.17554,-0.19094 -0.18921,-0.34425 -0.0969,-0.15216 -0.081,-0.31175 -0.0205,-0.47418 0.0957,-0.13793 -0.16129,-0.21771 -0.0228,-0.30834 0.0713,-0.0872 0.0245,-0.23709 0.16985,-0.26786 0.0923,-0.17213 0.29066,-0.0827 0.13392,0.0581 -0.14476,0.16984 -0.0461,0.25647 0.0325,0.35906 0.0803,0.20233 -0.0387,0.28896 -0.0872,0.41662 -0.0125,-0.0462 0.20631,-0.0576 0.18352,0.10203 -0.17954,0.0935 -0.0827,0.3488 0.0621,0.41663 0.16984,0.0564 0.31802,-0.10255 0.39781,0.12196 0.0855,0.21372 0.28041,0.0461 0.42232,-10e-4 0.15617,-0.069 0.19777,-0.28098 0.15845,-0.43885 -0.0644,-0.09 -0.27471,0.0524 -0.40637,0.0228 -0.22,0.0718 -0.27927,-0.0713 -0.30092,-0.26445 -0.0957,-0.34025 -0.12197,-0.70273 -0.2941,-1.02019 -0.002,-0.24621 -0.15445,-0.23936 -0.34595,-0.16585 -0.0416,0.009 -0.0827,0.0177 -0.12424,0.0268 z m 0.6235,1.85742 c 0.0753,0.0564 0.0336,0.28326 0.11741,0.26388 -0.0274,-0.0746 -0.0205,-0.2844 -0.11741,-0.26388 z"
       id="state_md"
       class="state-svg"
       inkscape:connector-curvature="0" />
    <path
       d="m -242.97844,568.37514 c -0.009,0.0832 0.0137,0.33569 -0.13678,0.2445 -0.14705,-0.0382 -0.3659,-0.18238 -0.46907,-0.15559 0.0399,0.21202 -0.0832,0.38584 -0.1704,0.56652 -0.17383,0.065 -0.13051,0.33227 -0.33285,0.31802 -0.0923,0.0992 -0.0838,0.30263 -0.13963,0.44056 -0.17611,0.065 -0.30606,-0.0274 -0.41491,-0.0997 0.006,0.37046 -0.21201,0.68108 -0.33683,1.01677 -0.0963,0.0985 0.0678,0.21657 -0.0422,0.32885 -0.077,0.20289 -0.21602,0.15502 -0.3528,0.2388 -0.15502,0.0626 -0.27927,0.0285 -0.30777,0.26274 -0.11797,0.065 -0.27528,0.14989 -0.39382,0.0268 -0.13565,0.086 -0.2861,0.18295 -0.44512,0.0912 -0.15331,-4e-4 -0.22228,-0.37331 -0.34595,-0.16756 -0.18637,0.23311 -0.44968,0.42631 -0.5819,0.68905 0.0245,0.18524 -0.25419,0.18922 -0.3659,0.29351 -0.24337,0.11115 0.20631,-0.006 0.29408,-0.004 0.31689,-0.0451 0.63492,-0.0781 0.95522,-0.0775 0.11113,-0.15103 0.28382,-0.10318 0.44283,-0.094 0.44797,-0.0182 0.89196,-0.12083 1.33822,-0.17041 0.73237,-0.0798 1.44991,-0.24337 2.16802,-0.40181 0.66398,-0.14362 1.32796,-0.28668 1.99251,-0.4303 -0.0935,-0.1516 -0.15674,-0.38015 -0.3659,-0.23596 -0.11342,0.11571 -0.37673,-0.10371 -0.15389,-0.14134 0.15103,-0.0923 -0.0997,-0.23196 -0.10256,-0.34025 -0.15559,-0.0353 -0.16414,-0.29181 0.0307,-0.20518 -0.009,-0.0781 -0.0707,-0.20631 -0.0923,-0.32372 0.0838,-0.20005 -0.0479,-0.28326 -0.21202,-0.29408 0.0177,-0.19492 -0.16528,-0.167 -0.29751,-0.22627 -0.18978,0.012 -0.40237,-0.0142 -0.5648,-0.0947 -0.0695,-0.13735 -0.0519,-0.29181 0.0713,-0.39212 0.0792,-0.16129 -0.016,-0.32486 -0.18808,-0.35734 -0.15103,-0.0473 -0.39724,-0.0165 -0.32657,-0.24507 -0.0473,-0.0172 -0.11683,-0.0604 -0.15331,-0.0604 z m 2.23186,1.23049 c 0.0251,0.26844 -0.17952,0.49584 -0.14932,0.76827 -0.0194,0.23424 0.15046,0.326 0.19834,0.0524 0.0975,-0.17325 -0.0132,-0.36874 0.0456,-0.55454 0.0228,-0.1442 0.2086,-0.22113 0.20061,-0.38356 -0.0986,0.0394 -0.19719,0.0786 -0.29579,0.1174 z"
       id="state_va"
       class="state-svg"
       inkscape:connector-curvature="0"
       style="fill-opacity:1" />
    <path
       d="m -246.0065,567.25636 c -0.0912,0.12709 0.0741,0.2861 0.0142,0.4417 -0.0105,0.23025 -0.0359,0.46222 -0.0479,0.69133 -0.11056,0.20404 -0.25248,0.4189 -0.46507,0.52035 -0.17953,-0.0758 -0.22341,0.18523 -0.32828,0.28382 -0.0889,0.12995 0.15047,0.28099 -0.0171,0.3813 -0.14646,0.20403 -0.14818,-0.27358 -0.25419,-0.0404 -0.0753,0.14761 0.001,0.3431 -0.077,0.47476 -0.10371,0.0878 -0.0302,0.2958 -0.23709,0.27414 -0.1271,0.007 -0.0827,0.35279 0.057,0.38812 0.12766,0.0838 0.14192,0.27014 0.31347,0.3374 0.10942,0.1117 0.12993,0.29522 0.30719,0.34481 0.0935,0.12483 0.17497,0.28269 0.35621,0.27814 0.14989,0.0285 0.27186,-0.22001 0.41149,-0.077 0.085,0.0461 0.22398,-0.0325 0.26104,-0.10434 0.0245,-0.26047 0.19492,-0.15445 0.34367,-0.2502 0.13621,-0.0536 0.2747,-0.0558 0.3203,-0.25305 -0.0718,-0.14762 0.0172,-0.28497 0.0889,-0.43544 0.1271,-0.27414 0.26902,-0.5477 0.26616,-0.85774 0.15104,-0.13166 0.21202,0.20289 0.40181,0.0803 0.0935,-0.10087 0.0638,-0.32315 0.14818,-0.43258 0.19777,0.0222 0.16928,-0.2257 0.32828,-0.29693 0.13052,-0.17725 0.20062,-0.38756 0.1744,-0.60984 0.0604,-0.0735 0.29068,0.0923 0.41207,0.12254 0.18808,0.19093 0.24735,-0.11284 0.16243,-0.23083 -0.11398,-0.12994 -0.29181,-0.21087 -0.43429,-0.27071 -0.18865,0.0558 -0.31005,0.31175 -0.5346,0.22627 -0.106,-0.0132 -0.13564,0.22682 -0.27699,0.22113 -0.16471,0.0404 -0.216,0.24963 -0.34367,0.35449 -0.0627,-0.003 -0.0564,-0.27471 -0.0923,-0.37843 -4e-4,-0.22399 -0.10087,-0.30207 -0.31233,-0.21771 -0.23995,0.0342 -0.47932,0.0701 -0.71869,0.10886 -0.0666,-0.36761 -0.13051,-0.73636 -0.19606,-1.10454 l -0.0199,0.0199 -0.0105,0.0105 z"
       id="state_wv"
       class="state-svg"
       inkscape:connector-curvature="0" />
    <path
       d="m -246.59069,565.80473 c -0.27642,0.11741 -0.42061,0.39325 -0.65371,0.56822 -0.23254,0.0491 -0.46108,0.0997 -0.66797,0.22114 -0.19435,0.0917 -0.2502,-0.2331 -0.43714,-0.14989 -0.17839,0.077 -0.31289,-0.0627 -0.46221,-0.13736 -0.49015,0.0655 -0.97744,0.15047 -1.46246,0.24963 0.0827,1.0162 0.23481,2.02498 0.33455,3.03947 -0.0394,0.21771 0.23139,0.12881 0.35508,0.0843 0.15615,0.0234 0.27527,0.12311 0.31231,0.28155 0.0718,0.14135 0.33171,-0.0496 0.39668,0.14476 0.12482,0.0872 0.25419,-0.13279 0.40067,-0.0331 0.14362,0.002 0.3203,0.086 0.38983,-0.0889 0.0849,-0.0314 0.30606,-0.21943 0.30834,-0.0404 0.0217,0.1442 0.21772,0.20347 0.32885,0.26788 0.20119,0.0359 0.13222,-0.22286 0.23994,-0.31404 -0.006,-0.15616 0.012,-0.32657 0.0792,-0.46335 0.14419,-0.16016 0.21658,0.25818 0.28383,0.0222 -0.11512,-0.12938 -0.0564,-0.30833 0.053,-0.42231 0.061,-0.2314 0.23082,-0.13736 0.37046,-0.25021 0.16699,-0.1801 0.37559,-0.37445 0.34025,-0.64232 0.0251,-0.26843 0.0673,-0.55568 -0.0302,-0.81102 0.0838,-0.14134 0.14704,-0.2445 0.0547,-0.41775 -0.11626,-0.42916 -0.1459,-0.876 -0.22398,-1.31314 -0.10318,0.0684 -0.20688,0.13678 -0.31004,0.20461 z"
       id="state_oh"
       class="state-svg"
       inkscape:connector-curvature="0"
       style="fill-opacity:1" />
    <path
       d="m -250.62811,566.51886 c -0.51978,0.053 -1.04583,0.11285 -1.56219,0.15274 -0.14819,0.0222 -0.23995,0.28953 -0.39269,0.16985 -0.21828,-0.16187 -0.15046,0.10434 -0.13735,0.25362 0.0626,0.84407 0.15559,1.68757 0.19605,2.53164 -0.0433,0.21032 -0.0792,0.44968 0.0775,0.62181 0.005,0.17041 0.0798,0.35792 -0.065,0.49299 -0.10424,0.15559 -0.14533,0.34709 -0.2861,0.47988 0.005,0.11856 -0.11513,0.46735 0.0929,0.29409 0.19891,-0.0342 0.41321,-0.0872 0.60927,-0.0763 0.13449,0.23253 0.15216,-0.0353 0.29978,-0.0735 0.1157,-0.14933 0.27243,0.11683 0.30435,0.0593 -0.0718,-0.19435 0.17383,-0.21487 0.29066,-0.29751 0.0621,0.0359 0.34482,0.19264 0.30207,-0.0364 -0.0262,-0.14077 0.11512,-0.26843 0.20802,-0.36134 0.17726,-0.0792 0.24679,-0.22228 0.2371,-0.41206 0.10434,-0.057 0.28098,-0.0576 0.39725,-0.14077 0.24108,-0.0586 0.0148,-0.19835 0.0695,-0.3374 -0.0473,-0.71584 -0.15958,-1.43225 -0.23253,-2.14809 -0.0484,-0.39839 -0.0821,-0.79848 -0.12197,-1.19801 -0.0957,0.009 -0.19093,0.0177 -0.28667,0.0268 z"
       id="state_in"
       class="state-svg"
       inkscape:connector-curvature="0" />
    <path
       d="m -261.0243,564.8575 c -0.19492,-0.003 -0.12311,0.32372 0.0411,0.35848 0.0307,0.11798 -0.0427,0.2884 -0.0803,0.41891 -0.12139,0.16072 -0.053,0.31061 0.0593,0.45139 0.0695,0.24735 0.12767,0.50439 0.23082,0.74433 0.0342,0.18352 0.0735,0.36362 0.19435,0.51295 10e-4,0.1989 0.0723,0.38128 0.13109,0.5648 -0.002,0.20176 0.001,0.40181 0.11854,0.57507 1.26526,-0.0581 2.53279,-0.0997 3.79919,-0.1499 0.0439,0.0815 0.18524,0.40523 0.24906,0.24223 -0.0548,-0.14249 0.0678,-0.25761 0.20347,-0.26902 -0.0501,-0.14932 0.0678,-0.2616 0.14249,-0.35791 0.0723,-0.16642 -0.0793,-0.22911 -0.13736,-0.35963 0.0394,-0.16528 0.10203,-0.30206 0.29238,-0.31118 0.16414,-0.0473 0.37445,-0.10319 0.37901,-0.30834 0.10034,-0.17327 0.21259,-0.45652 -0.0148,-0.5802 -0.15616,-0.0604 -0.0997,-0.30036 -0.29694,-0.29294 -0.0364,-0.11228 -0.0484,-0.27129 -0.2388,-0.23995 -0.15673,-0.0456 -0.25932,-0.19776 -0.30606,-0.34195 -0.0775,-0.16472 0.11456,-0.26902 0.094,-0.41492 -0.21772,-0.0229 -0.0678,-0.37046 -0.28668,-0.31176 -1.52458,0.0234 -3.04916,0.0462 -4.57373,0.0696 z"
       id="state_ia"
       class="state-svg"
       inkscape:connector-curvature="0"
       style="fill-opacity:1" />
    <path
       d="m -255.69541,565.95633 c -0.0165,0.14705 0.23938,0.10435 0.21259,0.28896 0.11798,0.11911 0.32544,0.23994 0.24963,0.44285 -0.0177,0.17325 -0.14875,0.31004 -0.17554,0.47873 -0.13564,0.15445 -0.34538,0.16985 -0.53061,0.22455 -0.0917,0.14079 -0.0598,0.27985 0.073,0.36876 0.0359,0.18523 -0.0616,0.28895 -0.15616,0.42061 0.0803,0.20689 -0.13622,0.16301 -0.20289,0.28611 0.0616,0.17782 -0.12027,0.21657 -0.1442,0.37844 0.0108,0.22512 0.0758,0.46792 0.18694,0.65998 0.20974,0.22569 0.42061,0.45025 0.69589,0.59672 -0.0348,0.16415 -0.0364,0.38186 0.19549,0.32544 0.11684,0 0.35222,0.0217 0.35678,0.15274 -0.0108,0.2502 -0.20517,0.46962 -0.18694,0.71412 0.0912,0.21829 0.30377,0.35679 0.48958,0.47989 0.19206,-0.0165 0.30548,0.0724 0.33626,0.26217 0.0576,0.15046 0.21885,0.26958 0.0985,0.43714 0.0314,0.0992 0.14704,0.43886 0.24565,0.23083 0.069,-0.16985 0.30833,-0.27243 0.45993,-0.14021 0.17669,0.14021 0.33854,0.0268 0.17839,-0.15957 -0.0558,-0.19322 0.14876,-0.28269 0.30606,-0.30378 0.0576,-0.0883 -0.0912,-0.25419 0.0798,-0.34026 0.10255,-0.22626 -0.0319,-0.53517 0.18921,-0.71184 0.0815,-0.16928 0.1841,-0.34026 0.25078,-0.51124 0.007,-0.17097 -0.0399,-0.32487 -0.13337,-0.46506 -0.0256,-0.26161 0.0746,-0.51807 0.001,-0.77797 -0.0661,-0.85489 -0.12652,-1.71265 -0.20916,-2.56527 -0.0581,-0.17668 -0.0917,-0.36818 -0.23025,-0.49984 -0.12938,-0.10434 -0.0291,-0.33797 -0.11228,-0.41719 -0.84123,0.0473 -1.68245,0.0952 -2.52368,0.14249 z"
       id="state_il"
       class="state-svg"
       inkscape:connector-curvature="0"
       style="fill-opacity:1" />
    <path
       d="m -238.82361,563.95985 c -0.39383,0.0878 -0.78707,0.17554 -1.18091,0.26388 0.12367,0.35336 0.15617,0.73123 0.13907,1.10226 -0.14932,0.24507 0.14875,0.13564 0.22626,-0.012 0.11912,-0.10773 0.2388,-0.21146 0.34139,-0.33513 0.11741,0.077 0.27243,-0.106 0.42403,-0.0832 0.16985,-0.0387 0.3243,-0.12766 0.48787,-0.18579 -0.0656,-0.26616 -0.13051,-0.53175 -0.19606,-0.79791 -0.081,0.016 -0.16129,0.0319 -0.24223,0.0479 z"
       id="state_ct"
       class="state-svg"
       inkscape:connector-curvature="0" />
    <path
       d="m -256.27788,560.51516 c -0.23139,0.15673 -0.49642,0.28041 -0.77112,0.33284 -0.16414,-0.0616 -0.31575,-0.0638 -0.31745,0.15274 -0.0274,0.19037 0.0291,0.40067 -0.0269,0.57963 -0.11514,0.18579 -0.39383,0.22969 -0.41947,0.4776 -0.14989,0.15844 0.12594,0.1744 0.12709,0.31519 0.10203,0.16527 -0.1214,0.27014 -0.0758,0.43599 0.0165,0.16699 -0.0228,0.36989 0.065,0.50895 0.0758,0.19834 0.33511,0.012 0.37843,0.22399 0.089,0.12881 0.31175,0.0587 0.35279,0.27243 0.12253,0.29066 0.55283,0.27642 0.63889,0.59216 0.0387,0.19263 0.0199,0.41833 0.11057,0.58817 0.1858,0.0598 0.11057,0.24736 0.0142,0.35393 -0.0451,0.2257 0.14419,0.47533 0.38471,0.4702 0.12994,0.0912 0.27699,0.094 0.44625,0.0678 0.74264,-0.0439 1.48583,-0.0872 2.22846,-0.13108 -10e-4,-0.25363 -0.11285,-0.49072 -0.10602,-0.74833 -0.0969,-0.11627 -0.0491,-0.23767 -0.002,-0.36419 0.0182,-0.16186 0.17497,-0.28098 0.086,-0.44853 -0.0598,-0.16757 -0.0501,-0.35394 0.0985,-0.47134 -0.0114,-0.16129 -0.0285,-0.28668 -0.009,-0.45196 -0.065,-0.23938 0.15046,-0.42746 0.21031,-0.64745 0.0524,-0.0644 0.17953,-0.47533 0.0416,-0.28097 -0.15103,0.21714 -0.2844,0.45651 -0.4662,0.64345 -0.0491,0.11741 -0.18295,0.25932 -0.29694,0.25647 -0.14648,-0.0718 0.016,-0.2559 0.0513,-0.36533 0.0268,-0.16755 0.18238,-0.24222 0.23311,-0.3904 -0.18866,-0.0735 -0.15788,-0.28668 -0.20176,-0.45139 0.001,-0.17611 -0.0701,-0.28953 -0.2445,-0.31746 -0.12197,-0.20916 -0.40124,-0.15844 -0.60357,-0.23481 -0.40636,-0.10658 -0.80987,-0.25021 -1.23505,-0.28439 -0.14134,-0.0308 -0.16186,-0.31404 -0.31404,-0.26959 -0.0975,-0.0878 -0.21942,-0.0399 -0.33169,0.007 -0.15959,-0.0753 0.0388,-0.26161 0.0855,-0.36362 0.12425,-0.0763 -0.0872,-0.12197 -0.13166,-0.057 z"
       id="state_wi"
       class="state-svg"
       inkscape:connector-curvature="0" />
    <path
       d="m -240.85942,571.40093 c -1.04298,0.21657 -2.08197,0.45594 -3.12666,0.66397 -0.7261,0.086 -1.4465,0.23197 -2.17602,0.28155 -0.18922,-0.0467 -0.0666,0.21202 -0.14248,0.31517 -0.14933,0.0763 -0.19891,0.2616 -0.28668,0.36363 -0.18465,-0.0775 -0.28895,0.0832 -0.36134,0.22626 -0.0621,-0.0325 -0.16869,10e-4 -0.19434,-0.0803 -0.11514,0.11171 -0.24906,0.21259 -0.24564,0.38812 -0.2086,0.0626 -0.35964,0.21772 -0.5289,0.33969 -0.15047,0.0536 -0.32829,0.1231 -0.42176,0.24791 0.0416,0.23139 -0.16984,0.18809 -0.29067,0.30151 -0.11285,0.26729 0.15616,0.15159 0.31803,0.14247 0.36533,-0.0678 0.75915,-0.0279 1.09313,-0.21259 0.28725,-0.10827 0.53631,-0.33626 0.85833,-0.32315 0.37046,-0.0364 0.74947,-0.0342 1.11821,-0.0393 0.17041,0.0302 0.1915,0.27299 0.31802,0.28553 0.30606,-0.0462 0.61953,-0.0952 0.92615,-0.10202 0.30662,0.0775 0.5477,0.3106 0.82754,0.45195 0.20461,0.15046 0.39497,0.32259 0.59445,0.48102 0.17953,-0.0491 0.3602,-0.09 0.54657,-0.098 0.0604,-0.25933 0.11626,-0.52948 0.30719,-0.72838 0.23937,-0.24336 0.52604,-0.47247 0.87371,-0.52947 0.16585,0.11114 0.2103,-0.16528 0.30036,-0.25818 0.15501,-0.28497 -0.13907,0.22284 -0.14021,-0.0696 -0.22057,0.0399 -0.30947,-0.0149 -0.1875,-0.22796 0.15787,-0.24223 -0.1556,-0.14306 -0.12083,-0.34311 -0.081,-0.21429 0.16186,0.12481 0.28838,0.0461 0.16016,0.006 0.29067,-0.10658 0.3186,-0.26217 0.0256,-0.16529 0.2616,-0.15388 0.18694,-0.36931 -0.22912,-0.1385 0.24222,-0.0376 0.0229,-0.224 -0.20062,-0.19606 -0.29866,-0.47475 -0.41207,-0.72723 -0.0878,0.0199 -0.17554,0.0404 -0.26388,0.0604 z m 0.9763,1.35188 c 0.0883,0.14875 -0.26446,0.2428 -0.0296,0.15331 0.0787,-0.10943 0.012,-0.2975 0.0137,-0.43428 -0.0422,-0.11684 0.0211,0.26045 0.016,0.28154 z"
       id="state_nc"
       class="state-svg"
       inkscape:connector-curvature="0"
       style="fill-opacity:1" />
    <path
       d="m -238.15051,562.76299 c -0.0593,0.17667 -0.22856,0.19947 -0.38699,0.23538 -0.49128,0.13222 -0.97858,0.26217 -1.47956,0.3488 -0.006,0.27186 -0.0667,0.54657 -0.001,0.81557 0.60756,-0.14818 1.22765,-0.2445 1.8238,-0.42403 0.20347,0.16016 0.34252,0.38357 0.4719,0.60356 0.1214,-0.0444 3.9e-4,-0.29351 0.21486,-0.30662 0.16699,-0.18694 0.10435,0.27244 0.18068,0.14932 0.12139,-0.17611 0.34766,-0.22226 0.5363,-0.29694 -0.006,-0.19434 -0.12595,-0.48728 -0.36361,-0.42915 0.0935,-0.005 0.2787,0.0496 0.27983,0.21771 0.0484,0.12767 -0.14533,0.21144 -0.24792,0.24165 -0.19206,0.0291 -0.2844,-0.10034 -0.3602,-0.25476 -0.0786,-0.11684 -0.20404,-0.37388 -0.35905,-0.20517 -0.10772,-0.098 -0.17839,-0.23026 -0.0758,-0.35906 0.13107,-0.13337 0.0701,-0.35336 -0.073,-0.40808 -0.053,0.0234 -0.106,0.0468 -0.15901,0.0707 z m 1.40545,1.61177 c -0.0912,0.15731 0.17383,-0.13906 0.004,-0.0182 l -0.004,0.0182 z m -0.64288,0.073 c 0.0907,0.0444 0.34709,-0.12881 0.1015,-0.1157 -0.0336,0.0387 -0.0678,0.077 -0.1015,0.1157 z"
       id="state_ma"
       class="state-svg"
       inkscape:connector-curvature="0" />
    <path
       d="m -246.53882,572.44789 c -0.50554,-0.006 -1.01221,0.0855 -1.51433,0.1556 -0.5836,0.163 -1.19629,0.1516 -1.79415,0.22911 -0.93128,0.0827 -1.86084,0.18752 -2.79041,0.28212 -0.26045,-0.0975 -0.0245,0.32714 -0.28838,0.23595 -0.39725,0.003 -0.7905,0.0701 -1.18774,0.0404 -0.0541,0.2428 -0.12409,0.56574 -0.20519,0.72725 -0.0811,0.1615 -0.13679,0.32463 -0.1626,0.45151 -0.0258,0.12687 -0.31407,0.17335 -0.10244,0.34748 0.21159,0.17413 0.076,0.26013 0.0684,0.27819 -0.007,0.018 3.86587,-0.37218 5.79852,-0.55797 -0.0132,-0.14477 0.0411,-0.30263 0.20119,-0.32429 0.17725,-0.0228 0.0564,-0.30834 0.27813,-0.33114 0.15787,-0.11513 0.36988,-0.12482 0.49128,-0.29523 0.10034,-0.1288 0.35963,-0.0935 0.32943,-0.30662 0.0678,-0.10087 0.17667,-0.21885 0.28667,-0.27642 0.0593,-0.0222 0.016,0.1015 0.098,0.0678 0.13565,0.0319 0.12538,-0.24849 0.29751,-0.21999 0.18807,0.0723 0.15274,-0.16642 0.28269,-0.23824 0.11683,-0.0536 0.21714,-0.38071 0.0524,-0.37559 -0.0461,0.0365 -0.0929,0.0724 -0.13906,0.10886 l 0,10e-4 z"
       id="state_tn"
       class="state-svg"
       inkscape:connector-curvature="0" />
    <path
       d="m -259.13097,573.64305 c 0.0985,0.27927 0.0855,0.57108 0.0872,0.86174 0.12254,0.6959 0.0644,1.40432 0.0838,2.10706 10e-4,0.21144 0.002,0.42289 0.003,0.63433 0.1174,0.18238 0.28781,-0.0826 0.43828,0.0838 0.0872,0.10034 -0.0501,0.42974 0.16927,0.36989 1.00365,-0.0205 2.00788,-0.0411 3.01154,-0.0616 0.11227,-0.14819 0.0234,-0.33626 -0.073,-0.46849 0.18808,-0.0917 -0.0907,-0.22569 0.0479,-0.37217 0.0427,-0.15787 0.0353,-0.36133 0.21543,-0.43828 -0.10714,-0.17497 0.11855,-0.29864 0.18181,-0.44911 0.21487,-0.0217 0.09,-0.18808 0.15046,-0.30891 0.0638,-0.15216 0.14591,-0.30091 0.27643,-0.375 0.0683,-0.23482 0.012,-0.15218 -0.0872,-0.31975 -0.1573,-0.18921 0.11113,-0.22568 0.13451,-0.38983 -0.003,-0.11056 0.18864,-0.38128 0.0695,-0.38471 -0.15104,0.0484 -0.30435,-0.0105 -0.45709,-0.0188 -0.005,-0.19264 0.25076,-0.22114 0.24051,-0.41605 0.0331,-0.22057 -0.20404,-0.20974 -0.36134,-0.18581 -1.37753,0.0439 -2.75506,0.0878 -4.13203,0.13166 z"
       id="state_ar"
       class="state-svg"
       inkscape:connector-curvature="0"
       style="fill-opacity:1" />
    <path
       d="m -260.21557,568.53187 c -0.13621,-0.0262 -0.0108,0.23083 0.004,0.31917 0.13964,0.18921 0.25704,0.44796 0.48729,0.52547 0.16016,-0.0137 0.20575,0.15218 0.15901,0.27585 -0.18352,0.0935 -0.098,0.28668 0.0109,0.40295 0.0513,0.14533 0.26274,0.17382 0.2787,0.31973 0.11969,0.73921 0.0638,1.48981 0.086,2.23529 0,0.326 0.004,0.65201 0.0411,0.9763 1.42427,-0.0536 2.84855,-0.10256 4.27281,-0.14306 0.17212,-0.0638 0.24792,0.098 0.30264,0.22683 0.0296,0.19835 -0.163,0.25419 -0.23596,0.39099 0.13508,0.0364 0.31746,0.0371 0.46792,-0.004 0.0832,-0.2046 0.10657,-0.42461 0.13564,-0.63947 0.0479,-0.16129 0.30036,-0.16471 0.26274,-0.34367 0.0781,-0.16756 0.008,-0.26217 -0.12653,-0.24393 -0.12253,-0.10318 -0.16186,-0.28668 -0.16299,-0.43316 0.0827,-0.16186 -0.11855,-0.28895 -0.13907,-0.44968 -0.0376,-0.18465 -0.30434,-0.0496 -0.39269,-0.20858 -0.15045,-0.13337 -0.35563,-0.22457 -0.39382,-0.44228 -0.0536,-0.18295 0.0866,-0.36875 0.12367,-0.54941 0.12539,-0.20119 -0.0763,-0.26788 -0.24677,-0.25647 -0.15161,0.0222 -0.30435,-0.0656 -0.27414,-0.23368 0.0491,-0.23197 -0.26845,-0.23082 -0.36647,-0.39496 -0.15388,-0.19378 -0.383,-0.34482 -0.4132,-0.60812 -0.0627,-0.18011 -0.12083,-0.39098 -0.0353,-0.57336 -0.13109,-0.0763 -0.12995,-0.32885 -0.30606,-0.27869 -1.17919,0.0439 -2.35839,0.0872 -3.53702,0.13108 z"
       id="state_mo"
       class="state-svg"
       inkscape:connector-curvature="0"
       style="fill-opacity:1" />
    <path
       d="m -249.82336,574.82225 c -0.0422,0.40237 0.24393,0.72325 0.30149,1.10567 0.0775,0.37445 0.19606,0.73863 0.28669,1.10796 0.0536,0.27813 0.12367,0.56708 0.31517,0.78365 -0.0484,0.19948 0.19207,0.18068 0.14761,0.36704 -0.10772,0.25362 -0.20347,0.54999 -0.0479,0.80533 0.003,0.14989 0.0536,0.30776 -0.0217,0.44911 0.16812,0.0536 0.0827,0.22854 0.17497,0.34252 0.077,0.15218 0.20973,0.27072 0.38926,0.22798 0.70387,-3.9e-4 1.40718,-0.0747 2.11047,-0.10943 0.18922,-0.0331 0.38015,-0.0421 0.57221,-0.0336 -0.0444,0.24165 0.17327,0.23652 0.11913,-0.005 -0.0513,-0.12197 -0.16757,-0.35507 0.0336,-0.37731 0.18238,0.0285 0.36591,0.0519 0.55056,0.0581 -0.0479,-0.21658 -0.0456,-0.43144 0.0285,-0.64231 0.0114,-0.20176 0.14932,-0.38357 0.12594,-0.58192 -0.0411,-0.16698 0.18581,-0.29977 0.16243,-0.45879 -0.12481,0.0781 -0.30148,-0.0404 -0.30434,-0.18181 -0.0319,-0.17782 -0.15445,-0.33227 -0.34367,-0.34538 -0.0758,-0.22227 -0.14932,-0.46564 -0.2844,-0.65144 -0.17782,-0.061 -0.34937,-0.17041 -0.40865,-0.35848 -0.1174,-0.1328 -0.29807,-0.18295 -0.37956,-0.35109 -0.11856,-0.12538 -0.29866,-0.16129 -0.43657,-0.2388 -0.0433,-0.14419 -0.18295,-0.2331 -0.22456,-0.38015 -0.0775,-0.14989 -0.16928,-0.26502 -0.35051,-0.21486 -0.13279,-0.0895 -0.4075,-0.19264 -0.30263,-0.39725 0.11512,-0.11455 0.21429,-0.23424 -0.0456,-0.17724 -0.72268,0.086 -1.44593,0.17155 -2.1686,0.2576 z"
       id="state_ga"
       class="state-svg"
       inkscape:connector-curvature="0" />
    <path
       d="m -246.16153,574.09216 c -0.24279,0.0228 -0.49242,0.0245 -0.69759,0.17497 -0.18239,0.0997 -0.36933,0.18181 -0.5631,0.2559 0.12596,0.18865 -0.24394,0.15616 -0.13337,0.36703 0.12938,0.12768 0.29637,0.2354 0.48444,0.18695 0.1442,0.17952 0.21829,0.39553 0.37217,0.56309 0.0519,0.1573 0.29238,0.11741 0.39041,0.2542 0.12424,0.0786 0.1687,0.24222 0.3203,0.28553 0.17041,0.11115 0.1915,0.36362 0.41378,0.41263 0.20574,0.0354 0.21486,0.27187 0.30435,0.42062 0.0217,0.19093 0.11512,0.27585 0.27299,0.33969 0.1915,0.10202 0.10034,0.41205 0.32315,0.46506 0.20689,-0.0786 0.33057,-0.26388 0.47761,-0.41834 -0.13393,-0.22398 0.0165,-0.18921 0.17155,-0.25305 0.11114,-0.13678 0.28611,-0.18808 0.35621,-0.35792 0.12368,-0.11399 0.21999,-0.25761 0.30777,-0.39325 0.16014,-0.009 0.19491,-0.20403 0.2804,-0.28667 -0.016,-0.23539 0.0741,-0.44968 0.17782,-0.65372 0.0588,-0.12027 0.40066,-0.25648 0.19777,-0.36135 -0.34025,-0.30491 -0.72838,-0.54143 -1.12334,-0.7677 -0.25362,-0.15274 -0.55511,-0.004 -0.8304,-0.003 -0.14647,-0.0131 -0.37787,0.14134 -0.41719,-0.073 -0.0947,-0.25647 -0.39496,-0.16073 -0.60585,-0.1687 -0.15957,0.004 -0.31973,0.008 -0.4793,0.012 z"
       id="state_sc"
       class="state-svg"
       inkscape:connector-curvature="0"
       style="fill-opacity:1" />
    <path
       d="m -249.69684,569.77832 c -0.1573,-0.0439 -0.34195,0.0633 -0.19263,0.21543 0.0866,0.17954 -0.17783,0.23482 -0.2958,0.30036 -0.16756,0.0302 -0.26844,0.0735 -0.24507,0.27471 -0.0656,0.1516 -0.30207,0.18465 -0.3602,0.3602 -0.12311,0.0798 0.0422,0.3545 -0.16187,0.3374 -0.17439,0.0347 -0.24849,-0.15902 -0.40408,0.006 -0.12881,0.0291 -0.0626,0.39781 -0.21942,0.17667 -0.12938,-0.14475 -0.31746,0.008 -0.35109,0.16016 -0.10885,0.061 -0.19377,-0.21259 -0.34309,-0.10886 -0.18923,0.0347 -0.42632,0.0268 -0.56538,0.16585 0.004,0.15104 -0.19321,0.21545 -0.0969,0.34481 0.13337,0.15161 -0.12709,0.15275 -0.21999,0.18808 -0.20347,0.077 -0.0387,0.24793 -0.0433,0.383 0.0188,0.19663 -0.2143,0.082 -0.3129,0.0411 -0.14249,-0.13051 -0.35678,-0.0217 -0.40636,0.1442 0.16299,0.12995 -0.002,0.27129 0.0234,0.43657 -0.19777,0.11627 -0.18181,0.1556 0.0536,0.13394 0.33284,3.9e-4 0.66341,-0.0541 0.99738,-0.0433 -0.0399,-0.21315 0.0559,-0.28439 0.2599,-0.2388 1.38666,-0.17155 2.78242,-0.26787 4.16965,-0.42345 0.24507,-0.0399 0.46735,-0.13566 0.66967,-0.27814 0.18808,-0.0456 0.23026,-0.15444 0.29181,-0.30491 0.19719,-0.2331 0.40636,-0.45937 0.61496,-0.68393 -0.18637,-0.0707 -0.17269,-0.31404 -0.35393,-0.3961 -0.14818,-0.0713 -0.11798,-0.26559 -0.29409,-0.30548 -0.13565,-0.15047 0.0456,-0.41492 -0.17212,-0.50554 -0.17211,-3.9e-4 -0.13507,-0.26502 -0.26046,-0.20005 -0.16813,0.0348 -0.20916,0.27244 -0.40009,0.18751 -0.15331,-0.0132 -0.31404,-0.0678 -0.44569,0.0404 -0.17098,0.0473 -0.2274,-0.20574 -0.42403,-0.11741 -0.20005,0.0467 -0.12368,-0.29578 -0.32202,-0.29977 -0.0661,-0.0519 -0.12083,-0.009 -0.18978,0.009 z"
       id="state_ky"
       class="state-svg"
       inkscape:connector-curvature="0" />
    <path
       d="m -252.34533,575.02914 c -0.0114,0.81899 0.006,1.63856 -0.0307,2.45755 -0.002,0.51352 -0.0501,1.03158 -0.004,1.54283 0.0883,0.56993 0.16756,1.14043 0.21943,1.71492 0.17497,0.0621 0.2103,-0.10942 0.25077,-0.23822 -0.0172,-0.22171 0.24336,-0.17213 0.27869,-0.002 0.0411,0.11741 0.23255,0.30036 0.0439,0.37901 -0.008,0.0524 0.35164,-0.0513 0.33511,-0.16471 -0.0251,-0.17155 0.0365,-0.39097 -0.16356,-0.46678 -0.13052,-0.0501 -0.1727,-0.3186 -0.0182,-0.32316 0.80246,-0.106 1.60779,-0.2046 2.41367,-0.27357 0.15389,0.061 0.38528,-0.0142 0.16927,-0.14248 -0.10255,-0.11398 0.0541,-0.28668 -0.0154,-0.436 -0.0177,-0.17667 -0.14989,-0.33626 -0.0746,-0.52148 3.9e-4,-0.16642 0.14192,-0.30549 0.11,-0.47306 -0.20062,-0.0257 -0.0763,-0.29123 -0.2428,-0.38185 -0.19833,-0.3317 -0.19149,-0.74319 -0.33967,-1.09485 -0.11514,-0.46107 -0.19037,-0.93526 -0.41321,-1.361 -0.0291,-0.13622 -0.0616,-0.27642 -0.0411,-0.41663 -0.82585,0.0673 -1.65167,0.13394 -2.47752,0.20119 z"
       id="state_al"
       class="state-svg"
       inkscape:connector-curvature="0"
       style="fill-opacity:1" />
    <path
       d="m -258.46871,577.74487 c 0.005,0.42916 -0.0137,0.87314 0.0952,1.28863 0.11854,0.14191 0.16072,0.31403 0.17953,0.49414 0.10658,0.15844 0.30035,0.28211 0.2616,0.49697 0.0918,0.12426 -0.012,0.32429 0.004,0.47762 0.0239,0.15045 -0.24849,0.27869 -0.11456,0.40579 0.061,0.1288 -0.0524,0.30263 -0.0302,0.45309 0.0217,0.18352 -0.13508,0.32487 -0.0883,0.50896 0.29523,-0.13678 0.62578,-0.0491 0.93868,-0.0621 0.326,0.0969 0.65885,0.27756 1.00081,0.24279 0.16699,-0.12823 0.33854,0.0205 0.5118,0.053 0.0616,-0.19378 -0.24051,-0.0461 -0.33056,-0.12538 -0.10886,-0.0205 -0.16471,-0.13109 -0.0666,-0.19379 0.11856,-0.0626 0.23255,-0.0621 0.32259,0.002 0.12253,-0.0792 0.31916,-0.0137 0.35678,0.13564 -0.0188,0.20632 0.19491,0.0969 0.30093,0.17953 0.21828,0.0855 -0.0803,0.23196 0.0473,0.30606 0.16414,0.0553 0.32657,0.16756 0.49128,0.1875 0.20005,-0.003 0.16016,-0.25818 0.36875,-0.23765 0.10434,-0.16529 0.25306,-0.0142 0.2502,0.13165 0.0872,0.0935 0.22798,-0.20974 0.11284,-0.2086 0.0125,-0.19207 0.12369,-0.18295 0.24565,-0.30834 0.0907,0.0541 0.0519,0.16073 0.0803,0.2371 0.18979,0.0222 0.42403,0.0621 0.53232,0.2314 0.15902,0.004 0.29466,0.0626 0.31689,-0.14591 -0.15274,-0.0154 -0.23652,-0.22113 -0.41891,-0.18181 -0.13165,0.003 -0.35906,-0.0923 -0.3505,-0.21486 0.0923,-0.20632 0.12709,-0.0992 0.11569,-0.24964 0.16414,0.0621 0.32429,-0.12937 0.18352,-0.25476 0.0262,-0.26331 -0.21259,-0.008 -0.19036,0.12482 -0.0775,0.069 -0.3619,-0.0548 -0.26216,-0.18637 0.0975,-0.10487 0.23936,-0.25647 0.12481,-0.39611 -0.007,-0.18579 -0.15332,-0.29693 -0.25476,-0.42061 0.0296,-0.15389 0.1288,-0.4189 -0.13451,-0.31118 -0.59444,0.073 -1.19516,0.0394 -1.79244,0.0638 -0.0918,-0.21201 -0.001,-0.44227 0.009,-0.66056 0.1516,-0.27699 0.31118,-0.54998 0.4702,-0.82299 -0.11628,-0.16071 0.20061,-0.25362 -0.0422,-0.36931 -0.0302,-0.12254 -0.0735,-0.26502 -0.13222,-0.38927 -0.004,-0.17668 0.0513,-0.41605 -0.20631,-0.32999 -0.96889,0.016 -1.93778,0.0325 -2.90668,0.0484 z"
       id="state_la"
       class="state-svg"
       inkscape:connector-curvature="0" />
    <path
       d="m -254.48258,575.2497 c -0.0827,0.0992 -0.22969,0.17953 -0.26389,0.34367 -0.0798,0.12652 0.0815,0.32714 -0.15331,0.34595 -0.0843,0.11227 -0.27186,0.25192 -0.19378,0.40864 -0.0775,0.10434 -0.2046,0.22513 -0.19833,0.39953 -0.1231,0.15161 0.0883,0.30093 -0.0154,0.40579 -0.0256,0.10487 0.12823,0.25192 0.077,0.40067 -0.10944,0.15445 -0.0929,0.3733 -0.0348,0.54315 0.0912,0.13678 0.0444,0.31574 0.21259,0.39553 -0.0541,0.14419 -0.0803,0.21372 -0.10658,0.35963 -0.14534,0.28268 -0.34595,0.54827 -0.44967,0.84578 3.9e-4,0.16984 -0.082,0.34995 -0.008,0.51124 0.64973,-0.0205 1.30345,0.0142 1.94861,-0.0855 0.15673,0.12595 -0.12481,0.36419 0.0758,0.46449 0.16071,0.0923 0.12995,0.29523 0.22171,0.43486 0.11796,-0.106 0.14304,-0.35279 0.33169,-0.23196 0.18295,-0.0382 0.39041,-0.17211 0.56367,-0.0364 0.20632,0.0416 0.34253,-0.0154 0.25191,-0.2428 -0.0461,-0.57562 -0.17041,-1.14386 -0.21886,-1.71835 0.008,-1.25328 0.0843,-2.50657 0.0364,-3.75986 -0.69247,0.0718 -1.38437,0.14363 -2.07685,0.21543 z"
       id="state_ms"
       class="state-svg"
       inkscape:connector-curvature="0"
       style="fill-opacity:1" />
    <path
       d="m -259.83998,557.60108 c -0.0394,0.14363 0.0531,0.4229 -0.0746,0.47533 -0.54999,-4e-4 -1.0994,-10e-4 -1.64938,-10e-4 0.0661,0.16357 0.12424,0.32828 0.0553,0.50211 0.003,0.32715 -0.0451,0.67595 0.14306,0.96604 0.11626,0.21543 0.0364,0.48273 0.0855,0.71811 0.0468,0.38985 0.10034,0.77911 0.20233,1.15811 0.003,0.21829 0.0501,0.44455 10e-4,0.65714 -0.0895,0.0992 -0.27984,0.18751 -0.12653,0.32943 0.10773,0.10434 0.28782,0.16756 0.26104,0.34765 0.016,0.67822 0.0142,1.35816 0.0239,2.03752 1.52287,-0.0217 3.04574,-0.0427 4.5686,-0.0644 -0.008,-0.20632 -0.0262,-0.45196 -0.24848,-0.53973 -0.17213,-0.0947 -0.35565,-0.17668 -0.43487,-0.37045 -0.0411,-0.20576 -0.30321,-0.0661 -0.34481,-0.26275 -0.0889,-0.11911 -0.3015,-0.0211 -0.37445,-0.21543 -0.0947,-0.11968 -0.0296,-0.31347 -0.0627,-0.46165 -0.0763,-0.16699 0.094,-0.2844 0.0838,-0.42973 -0.0114,-0.18352 -0.30548,-0.21942 -0.12766,-0.42346 0.0234,-0.25477 0.30719,-0.30378 0.43372,-0.48958 0.0137,-0.22057 -0.0416,-0.46393 0.0296,-0.67081 0.10034,-0.17896 0.29466,-0.29068 0.47192,-0.35679 0.10942,-0.11854 0.20859,-0.26045 0.34936,-0.33113 0.14476,-0.28325 0.34424,-0.56936 0.67309,-0.64972 0.25933,-0.11285 0.51979,-0.22341 0.77512,-0.34424 0.0416,-0.17953 -0.21087,-0.0105 -0.28839,10e-4 -0.0468,-0.22057 -0.23937,-0.17611 -0.41491,-0.16357 -0.12823,-0.0496 -0.30435,0.16129 -0.34196,-0.0376 -0.0644,-0.19948 -0.25704,0.0411 -0.33512,0.12139 -0.13279,0.0929 -0.3545,0.0661 -0.45937,-0.0319 0.0536,-0.17383 -0.26275,-0.0222 -0.25818,-0.22569 -0.009,-0.13108 -0.19834,0.0741 -0.32886,-0.0684 -0.17326,-0.0519 -0.31346,-0.18352 -0.47247,-0.24963 -0.14191,0.0228 -0.33398,-0.13565 -0.38186,0.0855 -0.0666,0.0451 -0.40751,0.10434 -0.33797,-0.0878 -0.17041,10e-4 -0.34368,-0.003 -0.42916,-0.0997 -0.14819,0.0336 -0.32601,-0.0234 -0.33626,-0.19549 -0.0501,-0.18694 -0.082,-0.37673 -0.10716,-0.56879 -0.0701,-0.0342 -0.14476,-0.0581 -0.22283,-0.0604 z"
       id="state_mn"
       class="state-svg"
       inkscape:connector-curvature="0" />
    <path
       d="m -267.46115,573.34212 c 0.99796,0.0638 1.99705,0.0987 2.99558,0.14078 -0.0781,0.77625 -0.16471,1.55194 -0.16129,2.33274 -0.0524,0.22399 0.19834,0.32943 0.34993,0.43657 0.0319,-0.31688 0.16871,0.0832 0.24223,-0.0747 0.053,-0.0855 0.31746,0.0957 0.19321,0.25191 0.0907,0.0377 0.27129,0.0291 0.38357,0.10371 0.159,-0.0564 0.29408,0.18922 0.40066,0.0718 0.10371,-0.10999 0.3186,-0.0177 0.37045,0.11514 0.13907,0.0451 0.0975,0.33283 0.27129,0.17382 0.0792,-0.094 0.35622,-0.0666 0.38129,0.069 0.073,0.0855 0.3243,0.21202 0.42118,0.10943 0.0188,-0.15674 0.19264,-0.33911 0.2616,-0.10424 0.20461,0.0217 0.39668,0.11398 0.59616,0.17098 0.12994,-0.10601 0.13907,-0.26673 0.37217,-0.19435 0.14419,0.10942 0.21658,-0.0803 0.35962,-0.0661 0.0484,0.13792 0.29637,0.13735 0.35279,-0.0285 0.18239,-0.0114 0.2086,0.21144 0.37331,0.24792 0.10601,0.0228 0.35963,0.20689 0.30549,0.0105 -0.0182,-0.69931 0.005,-1.40148 -0.0399,-2.0985 -0.0656,-0.34368 -0.0576,-0.69418 -0.0815,-1.04014 -0.0753,-0.3015 -0.11684,-0.61154 -0.11798,-0.92216 -1.14045,0.0377 -2.28203,-0.002 -3.42303,-0.0125 -1.58728,-0.0753 -3.17626,-0.13109 -4.76067,-0.25989 -0.0154,0.18865 -0.0308,0.37786 -0.0461,0.56652 z"
       id="state_ok"
       class="state-svg"
       inkscape:connector-curvature="0"
       style="fill-opacity:1" />
    <path
       d="m -267.68001,573.39569 c 0.13337,-0.006 -0.049,-0.10318 0,0 z m 0.0411,1.04356 c -0.0935,1.18774 -0.14362,2.37948 -0.26673,3.56495 -0.0291,0.24678 -0.0564,0.49356 -0.086,0.73977 -1.01677,-0.0496 -2.03297,-0.10999 -3.0446,-0.22171 -0.2371,-0.0234 -0.47419,-0.0433 -0.71128,-0.0633 -0.0382,0.21314 0.12937,0.20973 0.23025,0.3488 0.12881,0.10434 0.0644,0.34366 0.26502,0.37046 0.20062,0.0274 0.16528,0.26217 0.31062,0.36133 0.19263,0.17953 0.31346,0.45083 0.58532,0.51637 0.10886,0.0723 0.22797,0.18352 0.25818,0.31118 0.0394,0.22569 0.25819,0.40009 0.19777,0.64573 -0.0501,0.29352 0.12653,0.54885 0.33797,0.73408 0.12425,0.16813 0.29295,0.27129 0.49186,0.32942 0.10714,0.11113 0.17155,0.22114 0.32599,0.27813 0.14762,0.0105 0.30663,0.24735 0.41891,0.0673 0.14761,-0.17896 0.31233,-0.36533 0.34481,-0.60128 0.0718,-0.16072 0.20404,-0.24621 0.37046,-0.28838 0.15502,-0.0906 0.3032,-0.1214 0.42575,0.0353 0.27983,0.0325 0.58133,0.0302 0.84293,0.12653 0.16128,0.0815 0.1459,0.25818 0.29465,0.36077 0.0985,0.11683 0.27528,0.19207 0.33114,0.33171 0.0781,0.11796 0.15159,0.24278 0.15331,0.40065 0.0923,0.24736 0.23766,0.48503 0.30263,0.7375 -0.0137,0.15787 0.26502,0.14192 0.28212,0.31404 0.12767,0.23254 0.24906,0.52263 0.52491,0.59786 0.18694,0.11398 0.001,0.28725 0.0519,0.42745 0.18694,0.0496 -3.9e-4,0.26673 0.0536,0.38015 0.14419,0.0775 0.24906,0.18238 0.24051,0.36704 0.0222,0.19036 0.1214,0.38926 0.3243,0.42972 0.17155,0.11001 0.38129,0.1214 0.56252,0.19379 0.12995,0.10202 0.29352,0.2331 0.46507,0.16129 0.1972,0.0262 0.38585,0.0735 0.53403,0.21373 0.0815,0.14476 0.37103,-0.0519 0.24564,-0.16472 -0.11626,-0.1932 -0.0741,-0.44398 -0.16129,-0.65315 -0.0359,-0.17497 -0.13621,-0.3391 -0.0564,-0.51863 0.0666,-0.27928 0.16357,-0.55627 0.23025,-0.83838 -0.19207,-0.0576 -0.11798,-0.31176 0.069,-0.26844 0.22741,0.0239 0.20802,-0.36647 0.44512,-0.34481 0.29921,-0.0889 0.51693,-0.34196 0.80703,-0.4588 0.39383,-0.16016 0.77625,-0.36818 1.06692,-0.68677 0.14704,-0.16984 0.40409,-0.22513 0.49527,-0.4417 0.28497,-0.12652 0.55854,-0.28098 0.86744,-0.34197 -0.0553,-0.15046 0.0296,-0.27698 0.0753,-0.41149 0.0222,-0.17041 0.0108,-0.34595 0.0673,-0.50951 -0.17954,-0.12938 0.0217,-0.27985 0.0786,-0.42233 -0.0114,-0.15959 0.081,-0.35621 0.005,-0.49356 0.0171,-0.16699 -0.085,-0.29295 -0.19093,-0.41548 -0.1402,-0.15047 -0.0633,-0.39383 -0.22056,-0.54258 -0.14419,-0.26046 -0.0906,-0.58076 -0.12824,-0.86745 10e-4,-0.28496 0.0108,-0.56994 -0.0285,-0.8532 -0.14989,-0.13165 -0.31461,0.13281 -0.42859,-0.078 -0.17669,-0.11799 -0.43658,-0.1197 -0.55455,-0.32374 -0.13166,-0.14134 -0.21772,0.16187 -0.40922,0.0548 -0.10886,-0.15559 -0.2046,10e-4 -0.34082,0.0105 -0.12937,-0.0656 -0.34595,-0.0843 -0.34709,0.10034 -0.1573,0.13508 -0.33911,-0.053 -0.50952,-0.073 -0.17098,0.0787 -0.29807,-0.21829 -0.35906,-0.10658 -0.008,0.1516 -0.14362,0.29067 -0.29238,0.19037 -0.18408,-0.008 -0.27983,-0.14192 -0.37445,-0.22172 -0.16812,-0.0992 -0.24507,0.13223 -0.39552,0.0501 -0.0843,-0.0792 -0.10658,-0.20518 -0.22342,-0.32202 -0.1744,-0.16129 -0.28668,0.18068 -0.40636,0.0132 -0.11684,-0.12025 -0.31746,-0.0473 -0.45253,-0.15331 -0.2029,0.0336 -0.31574,-0.0137 -0.23539,-0.23425 -0.10772,-0.10543 -0.12995,0.069 -0.27185,-0.008 -0.0336,-0.0234 -0.19663,0.1015 -0.28497,-0.0633 -0.10829,-0.10828 -0.29238,-0.18352 -0.23824,-0.36761 10e-4,-0.60299 0.0142,-1.20541 0.0947,-1.80384 0.017,-0.17041 0.0342,-0.34082 0.0507,-0.5118 -1.00593,-0.0359 -2.01188,-0.0724 -3.01723,-0.12653 -0.0296,0.34595 -0.0593,0.69248 -0.089,1.03843 z m 6.06069,9.65185 c -0.29637,0.40865 0.167,-0.18636 0,0 z"
       id="state_tx"
       class="state-svg"
       inkscape:connector-curvature="0"
       style="fill-opacity:1" />
    <path
       d="m -274.334,578.97024 c 0.2747,0.0359 0.54998,0.0713 0.82469,0.10715 0.0245,-0.18979 0.0484,-0.38016 0.073,-0.56994 0.55283,0.0507 1.10567,0.10601 1.65794,0.15844 -0.0513,-0.17896 -0.0792,-0.34082 0.16186,-0.25647 1.04241,0.073 2.07913,0.21601 3.12382,0.2559 0.13963,-0.0342 0.43657,0.1214 0.45537,-0.0576 0.1744,-1.30686 0.21373,-2.62684 0.3186,-3.94053 0.0307,-0.44399 0.0792,-0.88683 0.11513,-1.33024 0.18294,0.0371 0.0666,-0.27414 0.11798,-0.39098 0.10202,-0.24963 -0.16358,-0.19205 -0.32658,-0.21942 -1.84374,-0.18808 -3.68806,-0.37559 -5.53179,-0.56366 -0.32999,2.26891 -0.65999,4.53839 -0.99055,6.80731 z"
       id="state_nm"
       class="state-svg"
       inkscape:connector-curvature="0"
       style="fill-opacity:1" />
    <path
       d="m -266.47972,572.78986 c 1.42826,0.0666 2.85595,0.15445 4.28534,0.19092 0.98143,0.004 1.96286,0.0359 2.94428,0.0105 -0.0142,-0.72324 0.0132,-1.44877 -0.0267,-2.17031 -0.0348,-0.1613 -0.009,-0.35734 -0.0786,-0.49813 -0.17326,-0.11569 -0.34311,-0.2958 -0.38073,-0.49982 -0.0245,-0.14306 0.24509,-0.26161 0.0735,-0.37845 -0.17212,0.0308 -0.23083,-0.19035 -0.40864,-0.13848 -2.06374,-0.0467 -4.12804,-0.0758 -6.19121,-0.14249 -0.0724,1.20883 -0.14477,2.41766 -0.21715,3.62649 z"
       id="state_ks"
       class="state-svg"
       inkscape:connector-curvature="0"
       style="fill-opacity:1" />
    <path
       d="m -268.02709,567.67468 c 0.61324,0.0548 1.21224,0.15503 1.8255,0.2086 -0.0211,0.40523 -0.0404,0.81102 -0.0604,1.21625 2.0797,0.0735 4.16053,0.10487 6.2408,0.1459 -0.0177,-0.0667 -0.1784,-0.23083 -0.22969,-0.35051 -0.11342,-0.12026 -0.0205,-0.29238 -0.13964,-0.41833 -0.13791,-0.18181 -0.0947,-0.40694 -0.12537,-0.61497 -0.0947,-0.16299 -0.0827,-0.3562 -0.13052,-0.52776 -0.16757,-0.16243 -0.13337,-0.39952 -0.22513,-0.59785 -0.0644,-0.17669 -0.12424,-0.35279 -0.14932,-0.53973 -0.20005,0.0753 -0.16472,-0.17497 -0.27642,-0.24451 -0.13679,-0.0957 -0.31745,-0.10543 -0.43999,-0.22398 -0.21601,0.004 -0.436,0.0593 -0.63434,0.11057 -0.14362,-0.12539 -0.34367,-0.17839 -0.45081,-0.34538 -0.77569,0.0548 -1.55194,-0.0279 -2.32706,-0.0633 -0.8834,-0.0598 -1.76793,-0.10203 -2.65076,-0.163 -0.0952,0.80247 -0.16129,1.60551 -0.22798,2.40797 z"
       id="state_ne"
       class="state-svg"
       inkscape:connector-curvature="0"
       style="fill-opacity:1" />
    <path
       d="m -267.7957,565.21371 c 1.46359,0.09 2.92776,0.17953 4.39192,0.2428 0.20404,-4e-4 0.41833,-0.0291 0.6161,-0.0131 0.10255,0.16527 0.29865,0.21942 0.43828,0.34196 0.20233,-0.0826 0.42859,-0.10772 0.64118,-0.10886 0.13963,0.15217 0.41377,0.13052 0.52149,0.30377 0.0752,0.2713 0.18637,0.10601 0.0105,-0.0656 -0.0872,-0.12367 0.0832,-0.26217 0.0889,-0.39838 0.0684,-0.16357 0.0786,-0.30093 -0.09,-0.3847 -0.0285,-0.11628 -0.0416,-0.37901 0.13735,-0.33284 0.14932,-0.016 0.0222,-0.30093 0.0604,-0.42746 -0.0182,-0.55284 0.0109,-1.10966 -0.0365,-1.66022 -0.0137,-0.20404 -0.35677,-0.2388 -0.30891,-0.47875 0.0621,-0.0695 0.33114,-0.24963 0.15675,-0.30776 -1.55195,-0.0507 -3.10616,-0.0576 -4.65467,-0.17953 -0.55797,-0.0353 -1.11537,-0.0706 -1.67334,-0.106 -0.0997,1.19173 -0.19947,2.38289 -0.29921,3.57463 z"
       id="state_sd"
       class="state-svg"
       inkscape:connector-curvature="0"
       style="fill-opacity:1" />
    <path
       d="m -267.48565,561.58379 c 1.50804,0.0849 3.01438,0.21088 4.52528,0.22285 0.61781,0.0148 1.23505,0.0296 1.85286,0.0444 3.9e-4,-0.31517 -0.0786,-0.61667 -0.14249,-0.92159 -0.0723,-0.42289 -0.11683,-0.84863 -0.12139,-1.2778 -0.14876,-0.23709 -0.23425,-0.51293 -0.19834,-0.79449 -0.0251,-0.18522 0.0382,-0.37444 0.0172,-0.55283 -0.008,-0.22854 -0.16128,-0.26274 -0.35962,-0.23481 -1.43339,-0.0269 -2.86849,-0.0598 -4.29789,-0.1744 -0.29466,-0.0279 -0.58874,-0.0558 -0.8834,-0.0838 -0.13051,1.25727 -0.26103,2.51512 -0.39211,3.7724 z"
       id="state_nd"
       class="state-svg"
       inkscape:connector-curvature="0" />
    <path
       d="m -274.4799,566.94802 c 2.13155,0.25591 4.23404,0.46906 6.36561,0.72496 0.14247,-1.66421 0.31346,-3.28568 0.45594,-4.94932 -2.00959,-0.25362 -4.01918,-0.50725 -6.02877,-0.76029 -0.26445,1.66193 -0.52833,3.32329 -0.79278,4.98522 z"
       id="state_wy"
       class="state-svg"
       inkscape:connector-curvature="0"
       style="fill-opacity:1" />
    <path
       d="m -277.19109,557.50704 c 0.0479,0.1573 0.18524,0.30777 0.18238,0.46906 -0.0855,0.15901 -0.057,0.31289 0.0296,0.4645 0.19377,0.0222 0.23824,0.19606 0.29979,0.35107 0.0815,0.19036 0.14533,0.39212 0.30605,0.53232 0.0501,0.12596 0.30036,0.0673 0.24735,0.26902 -0.12709,0.35393 -0.31062,0.69702 -0.40237,1.05779 0.001,0.19037 0.19378,0.29923 0.32657,0.12653 0.0918,-0.1385 0.32088,-0.17326 0.2673,0.0553 -0.0285,0.30206 0.10318,0.58988 0.14761,0.8851 0.10829,0.11399 0.30036,0.19606 0.32373,0.35964 -0.0404,0.10885 -0.0222,0.50039 0.13222,0.29294 0.10544,-0.10772 0.28098,-0.0165 0.39041,0.0491 0.18694,-0.0929 0.41378,-0.069 0.58931,0.0393 0.21031,0.0234 0.0867,-0.28497 0.33912,-0.23253 0.15445,-0.0239 0.11455,0.38128 0.18295,0.23367 0.0319,-0.1858 0.0621,-0.37274 0.0957,-0.55854 2.02727,0.2559 4.05509,0.51066 6.08235,0.766 0.16528,-1.6209 0.33,-3.2418 0.49528,-4.86212 -1.6437,-0.13051 -3.27999,-0.33684 -4.91228,-0.56937 -1.5223,-0.23481 -3.04118,-0.49642 -4.54409,-0.83666 -0.17384,-0.0347 -0.39839,-0.14761 -0.37217,0.12481 -0.069,0.32771 -0.13793,0.656 -0.20631,0.98372 z"
       id="state_mt"
       class="state-svg"
       inkscape:connector-curvature="0"
       style="fill-opacity:1" />
    <path
       d="m -273.33947,572.11677 c 2.27348,0.2331 4.53156,0.47076 6.80446,0.67879 0.0918,-1.62204 0.18409,-3.24408 0.27585,-4.86611 -2.13554,-0.23767 -4.2711,-0.47476 -6.40664,-0.71242 -0.22968,1.65167 -0.44455,3.24807 -0.67423,4.89974 z"
       id="state_co"
       class="state-svg"
       inkscape:connector-curvature="0"
       style="fill-opacity:1" />
    <path
       d="m -278.48769,559.76 c 0.0297,0.17496 0.12938,0.29922 0.28155,0.38642 0.0227,0.17211 -0.0347,0.31118 -0.17269,0.41662 -0.13109,0.15388 -0.24963,0.34025 -0.34709,0.50325 0.0222,0.16698 -0.14648,0.20175 -0.24108,0.27357 -0.10087,0.13165 -0.24393,0.24507 -0.22399,0.42745 -0.0365,0.1385 0.26729,0.0325 0.23311,0.24735 -0.2958,0.63662 -0.38642,1.33992 -0.57736,2.01301 -0.0451,0.18011 -0.0695,0.27984 -0.11455,0.46051 3.24407,0.73179 3.54842,0.76656 5.33346,1.10624 0.15673,-1.00308 0.31346,-2.00673 0.47019,-3.00982 -0.1516,-0.0479 -0.0331,-0.3716 -0.24108,-0.28326 -0.0707,0.0969 -0.0923,0.28212 -0.29465,0.19776 -0.17725,-0.1134 -0.38813,-0.0763 -0.57735,-0.0319 -0.1442,-0.10034 -0.33683,-0.11455 -0.43828,0.0501 -0.0997,-0.003 -0.18751,-0.19322 -0.15902,-0.30549 0.10887,-0.22683 -0.16243,-0.33569 -0.28781,-0.47134 -0.0558,-0.33512 -0.19834,-0.6634 -0.14248,-1.00821 -0.10601,-3.9e-4 -0.24222,0.15331 -0.36875,0.20688 -0.12595,0.0105 -0.25762,-0.17611 -0.23368,-0.30263 0.0678,-0.30606 0.23197,-0.59102 0.33513,-0.88911 0.11113,-0.15045 0.0638,-0.31744 -0.13736,-0.3203 -0.0883,-0.19206 -0.28041,-0.32258 -0.31973,-0.54314 -0.0746,-0.14989 -0.081,-0.36875 -0.28839,-0.38527 -0.0564,-0.10545 -0.18123,-0.25477 -0.10886,-0.38357 0.11913,-0.16984 -0.0194,-0.32487 -0.0872,-0.48445 -0.1214,-0.17383 0.0314,-0.38072 0.0382,-0.57051 0.0513,-0.24792 0.10255,-0.49527 0.15331,-0.74319 -0.23823,-0.0444 -0.47589,-0.0889 -0.71412,-0.13337 -0.25647,1.1923 -0.51295,2.38404 -0.76942,3.57634 z"
       id="state_id"
       class="state-svg"
       inkscape:connector-curvature="0"
       style="fill-opacity:1" />
    <path
       d="m -278.11723,571.50408 c 1.57131,0.22342 3.14319,0.44626 4.71451,0.66968 0.23025,-1.65738 0.4605,-3.31531 0.69133,-4.97269 -0.61724,-0.065 -1.23392,-0.13279 -1.85059,-0.20461 0.0815,-0.45195 0.16073,-0.90335 0.21886,-1.35872 -0.87029,-0.16243 -1.74058,-0.32543 -2.61087,-0.48787 -0.38756,2.11845 -0.77512,4.23633 -1.16324,6.35478 z"
       id="state_ut"
       class="state-svg"
       inkscape:connector-curvature="0"
       style="fill-opacity:1" />
    <path
       d="m -278.29676,572.46613 c -0.14192,-0.003 -0.17383,0.25248 -0.36362,0.16757 -0.0422,-0.16358 -0.20461,-0.16073 -0.31859,-0.24052 -0.21316,0.0421 -0.13508,0.26104 -0.15275,0.42232 -0.0296,0.28725 -0.0239,0.58191 -0.0507,0.86744 -0.12481,0.13281 -0.13907,0.32943 -0.0137,0.46678 0.13222,0.14932 0.0331,0.42859 0.2331,0.51808 0.0558,0.2046 -0.16472,0.27528 -0.30834,0.34708 -0.18751,0.14021 -0.18694,0.39098 -0.22113,0.59673 -0.0713,0.13907 -0.27414,0.13621 -0.28042,0.28326 0.0269,0.12424 0.35223,0.0217 0.19493,0.25875 -0.0371,0.15673 -0.17896,0.19662 -0.3203,0.21543 -0.20518,0.0826 -0.15333,0.26788 0.0439,0.31004 0.83724,0.44684 1.62545,0.97631 2.45129,1.44309 0.33,0.1818 0.64232,0.41092 0.98427,0.56309 0.6674,0.1613 1.3536,0.19663 2.03354,0.27756 0.32542,-2.24441 0.65086,-4.48825 0.9763,-6.73264 -1.57188,-0.224 -3.14433,-0.44741 -4.71621,-0.67139 -0.057,0.30263 -0.11399,0.60584 -0.17099,0.90848 z"
       id="state_az"
       class="state-svg"
       inkscape:connector-curvature="0"
       style="fill-opacity:1" />
    <path
       d="m -283.33214,567.77841 c 1.30857,1.97255 2.61714,3.94567 3.92572,5.91821 0.20859,0.15104 0.18181,-0.19776 0.18637,-0.32543 0.0211,-0.30947 0.0205,-0.64061 0.0616,-0.93697 0.11684,-0.1157 0.2428,-0.11399 0.34652,-0.0222 0.14932,-0.009 0.21999,0.33626 0.34367,0.0723 0.15617,-0.0467 0.15161,-0.20745 0.17838,-0.36533 0.42746,-2.32932 0.85491,-4.65921 1.28294,-6.98854 -1.75085,-0.38812 -3.50168,-0.77683 -5.25253,-1.16494 -0.35735,1.27095 -0.7147,2.54191 -1.07205,3.81343 z"
       id="state_nv"
       class="state-svg"
       inkscape:connector-curvature="0"
       style="fill-opacity:1" />
    <path
       d="m -284.33978,558.11232 c -0.16643,0.43371 -0.25249,0.89821 -0.49357,1.30059 -0.163,0.48615 -0.33969,0.9649 -0.57962,1.41857 -0.1744,0.37673 -0.45595,0.70158 -0.64517,1.06577 -0.0588,0.37046 -0.0365,0.74377 -0.0205,1.11707 2.12187,0.49585 4.24374,0.95123 6.36561,1.44708 0.19663,-0.74947 0.37103,-1.46759 0.58077,-2.21193 0.0684,-0.14134 0.17952,-0.34538 -0.0626,-0.30889 -0.14705,-0.1015 -0.0132,-0.25364 -0.0217,-0.39384 0.13108,-0.16072 0.24849,-0.3317 0.42575,-0.4417 0.0997,-0.28952 0.30947,-0.52377 0.51465,-0.74433 0.0947,-0.19834 -0.1402,-0.22341 -0.19322,-0.36875 -0.0142,-0.216 -0.20289,-0.24279 -0.37729,-0.2844 -0.43486,-0.12538 -0.87656,-0.23937 -1.32282,-0.31574 -0.27927,10e-4 -0.55797,0.003 -0.83724,0.005 -0.0541,-0.16186 -0.26616,0.10601 -0.40521,0.0285 -0.14877,0.0467 -0.25192,-0.14989 -0.37445,-0.073 -0.14876,-0.003 -0.29809,0.006 -0.4075,-0.10657 -0.17612,-0.0872 -0.36078,-0.10318 -0.54145,-0.17668 -0.10658,0.17269 -0.32429,0.0695 -0.48616,0.0747 -0.094,-0.0935 -0.32998,-0.17212 -0.34367,-0.27414 0.0627,-0.13906 0.0444,-0.33796 0.0302,-0.48957 -0.0239,-0.22341 -0.26901,-0.14989 -0.35621,-0.25591 -0.025,-0.24792 -0.31802,-0.0325 -0.44854,-0.012 z"
       id="state_or"
       class="state-svg"
       inkscape:connector-curvature="0"
       style="fill-opacity:1" />
    <path
       d="m -282.38947,555.02953 c 0.003,0.15674 0.16699,0.3072 0.18523,0.46507 -0.10943,0.1328 -0.10139,0.2958 -0.0752,0.43942 -0.10318,0.15047 0.0929,0.27471 0.0382,0.42289 -0.20517,0.0867 -0.13849,-0.21087 -0.27699,-0.28439 -0.19035,-0.12768 0.0838,-0.22057 0.0666,-0.30891 -0.14249,-0.0633 -0.12768,0.22114 -0.21031,0.23767 -0.24336,0.0353 -0.44114,-0.1556 -0.67481,-0.18238 -0.28155,-0.10886 -0.5403,-0.27813 -0.71298,-0.53119 -0.17839,-0.0558 -0.11172,0.28326 -0.18524,0.39611 -0.0359,0.15958 0.14762,0.28839 0.0803,0.46792 0.0296,0.21999 -0.0735,0.4303 0.0105,0.64345 -0.0604,0.16415 0.27072,0.31575 0.16755,0.3642 -0.19662,-0.0598 -0.35336,0.18238 -0.12823,0.24734 0.0895,0.0553 -0.0347,0.36021 -0.18808,0.30948 -0.10434,0.12253 0.073,0.39098 0.23596,0.23767 0.21486,-0.0883 0.15672,0.20003 0.33227,0.17838 0.16014,-0.0137 0.24278,0.18865 0.25875,0.31974 0.002,0.14134 -0.008,0.34309 -0.0148,0.4434 0.14989,0.10034 0.28553,0.2428 0.48217,0.20633 0.18237,0.0376 0.26787,-0.18581 0.45423,-0.0285 0.17155,0.0274 0.36306,0.0883 0.50098,0.20859 0.17269,0.0524 0.3431,-0.1015 0.46677,0.0598 0.19606,0.0741 0.38015,10e-4 0.56082,-0.0798 0.0564,0.1015 0.25191,0.0753 0.39896,0.0741 0.30491,-0.0108 0.60868,-0.009 0.90163,0.0883 0.39838,0.082 0.78537,0.19663 1.17692,0.30776 0.25476,-1.18832 0.50952,-2.3772 0.76429,-3.56551 -1.12905,-0.22398 -2.24384,-0.52491 -3.34724,-0.83552 -0.41435,-0.0872 -0.82071,-0.20062 -1.22308,-0.33456 l -0.0239,0.0177 -0.0211,0.0154 z m -0.33512,0.36704 c -0.0827,-0.082 -0.19092,-0.0513 -0.0444,0.14077 -0.0187,-0.216 0.25477,0.0274 0.24279,-0.19662 -0.0422,-0.0815 -0.16699,-0.005 -0.19834,0.0558 z m 0.13165,0.10886 c -0.17839,0.17325 0.0775,0.12424 0.009,-0.0142 l -0.009,0.0142 z"
       id="state_wa"
       class="state-svg"
       inkscape:connector-curvature="0"
       style="fill-opacity:1" />
    <path
       d="m -286.16928,563.30613 c -0.005,0.23026 0.0229,0.46792 -0.11341,0.66967 -0.10601,0.20974 -0.14534,0.46963 -0.36932,0.5916 -0.0678,0.12025 -0.19891,0.19264 -0.20461,0.36761 -0.11056,0.19891 0.14192,0.32201 0.16585,0.5118 0.0878,0.19321 0.13337,0.39554 0.0929,0.60698 0,0.16643 -0.15901,0.28554 -0.12767,0.46393 0.003,0.16927 -0.12766,0.33455 0.002,0.48672 0.14704,0.28497 0.36362,0.56595 0.38242,0.89424 -0.0307,0.15787 -0.0564,0.30605 0.10318,0.40863 0.0912,0.11115 0.25591,0.2086 0.15901,0.36819 -0.0985,0.22056 -0.065,0.45822 -0.0621,0.69303 0.0957,0.15218 0.16129,0.38529 0.37958,0.37218 0.0843,0.13279 0.0553,0.27585 -0.0125,0.40635 -0.14249,0.0872 -0.24849,0.1556 -0.2086,0.34653 0.0154,0.1989 0.24337,0.30435 0.24849,0.51351 0.0832,0.35337 0.23539,0.67936 0.43258,0.98314 0.0404,0.14647 0.12311,0.24735 0.16529,0.36532 -0.0137,0.1898 -0.11,0.3699 -0.13736,0.56253 -0.0947,0.14876 0.0678,0.31461 0.22741,0.29181 0.22968,0.008 0.41434,0.18865 0.62749,0.23026 0.17098,-0.0314 0.27015,0.16528 0.34596,0.29123 0.0878,0.15446 0.13508,0.34197 0.32828,0.39212 0.14305,0.065 0.35279,0.003 0.40864,0.19662 0.13736,0.15502 -0.13621,0.28782 0.0803,0.29467 0.15559,0.10657 0.31688,-0.0992 0.43087,-0.0422 0.1214,0.11741 0.23082,0.23938 0.28098,0.40181 0.24507,0.27927 0.0821,0.67082 0.15901,0.99853 0.83951,0.11056 1.67789,0.269 2.52311,0.30662 0.15844,0.0678 0.35279,-0.25248 0.16186,-0.26502 -0.17839,0.0364 -0.16129,-0.22912 -0.0775,-0.26559 0.17952,-0.0501 0.2804,-0.21829 0.26502,-0.40124 0.0268,-0.22683 0.18637,-0.42346 0.41149,-0.47874 0.19549,-0.11627 -0.0189,-0.20404 -0.0451,-0.32999 -0.0132,-0.20802 -0.11115,-0.38813 -0.20633,-0.56367 0.11514,-0.20859 -0.12651,-0.18922 -0.1801,-0.35564 -1.28805,-1.94347 -2.5761,-3.88639 -3.86473,-5.82986 0.35735,-1.27894 0.71471,-2.55788 1.07206,-3.83625 -1.25614,-0.29408 -2.51228,-0.58759 -3.76899,-0.88168 -0.0257,0.0787 -0.0513,0.15673 -0.0763,0.23538 z m 1.37525,10.52785 c -0.0154,0.17383 0.45539,0.1744 0.26788,0.11798 -0.0929,-0.0199 -0.18068,-0.1402 -0.26788,-0.11798 z m -0.29408,0.0217 c 0.0188,0.21144 0.33113,0.0291 0.0746,-0.002 -0.0251,4e-4 -0.0501,10e-4 -0.0746,0.002 z m 1.46246,1.0521 c -0.0114,0.09 0.25191,0.34196 0.18009,0.13508 -0.0359,-0.0548 -0.11684,-0.12938 -0.18009,-0.13508 z m -0.11057,0.66284 c -0.008,0.0883 0.18237,0.22171 0.0753,0.0718 -0.0269,-0.0382 -0.0957,-0.21886 -0.0753,-0.0718 z"
       id="state_ca"
       class="state-svg"
       inkscape:connector-curvature="0"
       style="fill-opacity:1" />
    <path
       d="m -242.29781,568.95647 0.0105,-0.14885 -0.16564,-0.21804 0.16144,-0.1216 0.24948,0.26207 -0.25577,0.22642 z"
       id="state_dc"
       class="state-svg"
       inkscape:connector-curvature="0" />
  </g>
</svg>
