<svg id="Слой_1" data-name="Слой 1" xmlns="http://www.w3.org/2000/svg" viewBox="0 0 327.46 156.47"><defs><style>.cls-1,.cls-4{fill:#3174ae;}.cls-2{fill:none;}.cls-3{fill:#bf4e48;}.cls-4{font-size:31.08px;}.cls-4,.cls-5,.cls-6,.cls-7,.cls-8{font-family:LilitaOne, Lilita One;}.cls-5{font-size:24px;}.cls-5,.cls-6,.cls-7,.cls-8{fill:#fff;}.cls-6,.cls-7,.cls-8{font-size:29.23px;}.cls-6{letter-spacing:0em;}.cls-8{letter-spacing:0em;}</style></defs><title>Монтажная область 1</title><rect class="cls-1" x="48.72" y="119.18" width="230.02" height="35.16" rx="5.67"/><path class="cls-2" d="M179.06,67.58c-1.84-1.6-4.55-2.42-8.06-2.42h-9.83V83.61h.28c7-2,13.74-4.16,20.06-6.27a11.14,11.14,0,0,0,.37-2.91A8.65,8.65,0,0,0,179.06,67.58Z"/><path class="cls-3" d="M213.46,54.34H201.58V70.18c7.39-2.8,13.75-5.39,18.78-7.51Z"/><path class="cls-1" d="M239.85,86.2l-18.23-22c-4.59,2.27-11,5.18-20,8.88v36.21h13.91V77.41l26.39,31.87h11.88V54.34H239.85Z"/><polygon class="cls-1" points="261.58 59.93 261.58 109.28 275.81 109.28 275.81 59.93 268.67 54.57 261.58 59.93"/><polygon class="cls-1" points="297.78 98.69 297.78 86.49 323 86.49 323 76.31 297.78 76.31 297.78 64.92 326.4 64.92 326.4 54.34 283.7 54.34 283.7 109.28 327.46 109.28 327.46 98.69 297.78 98.69"/><path class="cls-3" d="M161.17,83.61V65.16H171c3.51,0,6.22.82,8.06,2.42a8.65,8.65,0,0,1,2.82,6.85,11.14,11.14,0,0,1-.37,2.91c5.17-1.74,10.08-3.47,14.65-5.14a18.41,18.41,0,0,0-2.82-8.43,19.09,19.09,0,0,0-8.36-7,31.69,31.69,0,0,0-13-2.47h-25V87.57q7.42-1.89,14.52-4Z"/><path class="cls-1" d="M146.93,93.35v15.93h14.24V94.19h10.15l10.29,15.09h15L184.73,92l1-.46a17.84,17.84,0,0,0,10.57-16.31c-11,4.39-25.31,9.76-43.89,16.29C150.53,92.15,148.73,92.76,146.93,93.35Z"/><path class="cls-3" d="M276.69,46.27l11.58-8.41H274a.92.92,0,0,1-.87-.63l-4.42-13.62-4.42,13.62a.94.94,0,0,1-.87.63H249.07l11.58,8.41a.93.93,0,0,1,.33,1L256.55,60.9l11.58-8.41a.89.89,0,0,1,1.07,0l11.58,8.41-4.42-13.61A.91.91,0,0,1,276.69,46.27Z"/><path class="cls-1" d="M97.8,109.28h43.75V98.69H128.67A239.77,239.77,0,0,1,97.8,104.5Z"/><path class="cls-3" d="M111.87,86.49h25.22V76.31H111.87V64.92H140.5V54.34H97.8V71.56a26.12,26.12,0,0,1,4.37,15.1,27,27,0,0,1-1.71,9.77q5.72-.68,11.41-1.57Z"/><path class="cls-3" d="M12.62,97.65h2.31V108.5H13.1l-5.55-5.84a6.39,6.39,0,0,0-1.65-1.34A3.18,3.18,0,0,0,4.5,101a1.91,1.91,0,0,0-1.58.7,3.27,3.27,0,0,0-.54,2,4.12,4.12,0,0,0,1.53,3.45l-1.47,1.91a5.69,5.69,0,0,1-1.8-2.32A8.05,8.05,0,0,1,0,103.48a6,6,0,0,1,1.14-3.83,3.73,3.73,0,0,1,3.09-1.43,5.21,5.21,0,0,1,2.25.5,9,9,0,0,1,2.4,1.94l3.74,3.93Z"/><path class="cls-3" d="M14.25,93.15a6.1,6.1,0,0,1-2.61,2.19,9.59,9.59,0,0,1-4.07.8,9.62,9.62,0,0,1-4.07-.8A6.1,6.1,0,0,1,.89,93.15a6.05,6.05,0,0,1,0-6.32,6.06,6.06,0,0,1,2.61-2.2,9.62,9.62,0,0,1,4.07-.8,9.59,9.59,0,0,1,4.07.8,6.06,6.06,0,0,1,2.61,2.2,6.05,6.05,0,0,1,0,6.32ZM11.46,87.5a6.77,6.77,0,0,0-3.89-.91,6.79,6.79,0,0,0-3.89.91,3,3,0,0,0,0,5,6.79,6.79,0,0,0,3.89.91,6.77,6.77,0,0,0,3.89-.91,3,3,0,0,0,0-5Z"/><path class="cls-3" d="M12.62,71.42h2.31V82.28H13.1L7.55,76.43A6.39,6.39,0,0,0,5.9,75.09a3.17,3.17,0,0,0-1.4-.34,1.9,1.9,0,0,0-1.58.69,3.27,3.27,0,0,0-.54,2,4.12,4.12,0,0,0,1.53,3.45L2.44,82.84a5.69,5.69,0,0,1-1.8-2.32A8,8,0,0,1,0,77.25a6,6,0,0,1,1.14-3.83A3.73,3.73,0,0,1,4.23,72a5.21,5.21,0,0,1,2.25.5,9,9,0,0,1,2.4,1.94l3.74,3.93Z"/><path class="cls-3" d="M14.25,66.92a6,6,0,0,1-2.61,2.19,9.59,9.59,0,0,1-4.07.8,9.62,9.62,0,0,1-4.07-.8A6,6,0,0,1,.89,66.92,5.74,5.74,0,0,1,0,63.77,5.8,5.8,0,0,1,.89,60.6,6.12,6.12,0,0,1,3.5,58.4a9.62,9.62,0,0,1,4.07-.8,9.59,9.59,0,0,1,4.07.8,6.12,6.12,0,0,1,2.61,2.2,5.72,5.72,0,0,1,.89,3.17A5.65,5.65,0,0,1,14.25,66.92Zm-2.79-5.65a6.77,6.77,0,0,0-3.89-.91,6.79,6.79,0,0,0-3.89.91,3,3,0,0,0,0,5,6.79,6.79,0,0,0,3.89.91,6.77,6.77,0,0,0,3.89-.91,3,3,0,0,0,0-5Z"/><path class="cls-1" d="M17.89,96.16v12.66H62.55c9,0,16.24-1.27,21.76-3.78C55,106.67,32.64,101.54,17.89,96.16Z"/><path class="cls-2" d="M69.05,40.23q-4.38-2.94-12.53-2.94H34.45V60.44H56.52q8.15,0,12.53-2.94a9.68,9.68,0,0,0,4.38-8.58A9.79,9.79,0,0,0,69.05,40.23Z"/><path class="cls-3" d="M89,98a20.48,20.48,0,0,0,3.3-11.74A21.25,21.25,0,0,0,88.25,73a22.17,22.17,0,0,0-11-7.62,19.63,19.63,0,0,0,7.92-7.43,21,21,0,0,0,2.88-11,18.69,18.69,0,0,0-8-16q-7.2-5.21-19.88-5.74a35.41,35.41,0,0,1-3.19-2l-.06,0c-6.5-4.56-8.68,2-12.59-3.36A18,18,0,0,1,41.16,8a17.91,17.91,0,0,0-2.6,10.57c.49,6-3.51,11.25-3.19,4.42s-2.83-7.81-5.76-12.53S29.61,0,29.61,0s-8.79,12.36-9.27,17.73c-.2,2.21.35,3.25.83,3.69a7.77,7.77,0,0,0-.8-.11C11.71,20.54,15.29,11,15.29,11s-5.53,3.74-3.58,9.59c1.53,4.58,4.75,5.1,6,9.37v2.16c-.9,6.55-1,3.08-4.28-1.58C9.87,25.45,5.11,29,5.11,29S10,27.64,9.67,34.8,6.74,45.86,14.22,54.16l.1.11a16.16,16.16,0,0,1,3.41,6v26.1c4.45,1.72,11.4,4.12,16.72,5.71V72.55H59.63q18.12,0,18.11,12.11T59.63,96.78H55.87c3.67.56,7.44,1,11.32,1.31l-.29,0a132.77,132.77,0,0,0,17.76.13C86.11,98.18,87.56,98.08,89,98Zm-20-40.46q-4.38,2.94-12.53,2.94H34.45V37.29H56.52q8.15,0,12.53,2.94a9.79,9.79,0,0,1,4.38,8.69A9.68,9.68,0,0,1,69.05,57.5Z"/><rect class="cls-2" x="-146.61" y="-229.86" width="595.28" height="595.28"/><text class="cls-4" transform="translate(97.77 44.53)">VOTE FOR</text><text class="cls-5" transform="translate(59.99 146)">V</text><text class="cls-6" transform="translate(75.85 146) scale(0.7)">OTE</text><text class="cls-5" transform="translate(110.45 146)">F</text><text class="cls-7" transform="translate(121.78 146) scale(0.7)">OR</text><text class="cls-5" transform="translate(148.09 146)">B</text><text class="cls-7" transform="translate(162.35 146) scale(0.7)">ERNIE</text><text class="cls-8" transform="translate(216.63 146)">.</text><text class="cls-7" transform="translate(223.32 146) scale(0.7)">ORG</text></svg>